<?xml version="1.0" encoding="UTF-8"?>
<svg version="1.1" xmlns="http://www.w3.org/2000/svg" width="900" height="900">
<path d="M0 0 C297 0 594 0 900 0 C900 297 900 594 900 900 C603 900 306 900 0 900 C0 603 0 306 0 0 Z " fill="#FEFEFE" transform="translate(0,0)"/>
<path d="M0 0 C1.10698242 0.00014099 2.21396484 0.00028198 3.35449219 0.00042725 C35.23382282 0.06717725 35.23382282 0.06717725 50 4.4375 C51.45693665 4.69223484 52.92097568 4.91173647 54.390625 5.078125 C66.46387007 6.59162621 77.52013786 9.42474276 89 13.4375 C89 14.0975 89 14.7575 89 15.4375 C90.175625 15.623125 91.35125 15.80875 92.5625 16 C98.54551539 17.31173366 103.8446693 20.04177002 109.3203125 22.6875 C113.19013373 24.55334241 117.13612366 26.16665987 121.14453125 27.7109375 C123 28.4375 123 28.4375 125 29.4375 C125 30.0975 125 30.7575 125 31.4375 C125.72316406 31.71464844 126.44632813 31.99179687 127.19140625 32.27734375 C147.64220953 40.72503301 164.43522281 55.66460535 180.6171875 70.3125 C182.60846253 72.0883256 184.63008264 73.80240002 186.6875 75.5 C189.82731277 78.17140247 192.47663733 81.12579866 195.13671875 84.26953125 C196.396246 85.73501893 197.69219127 87.16985711 199.01953125 88.57421875 C205.70368304 95.66785011 211.21052977 103.48629796 216.68994141 111.52148438 C217.52960621 112.74952936 218.37996237 113.97037224 219.24365234 115.18164062 C222 119.10855841 222 119.10855841 222 122.4375 C222.66 122.4375 223.32 122.4375 224 122.4375 C225.4257596 125.0513926 226.85098493 127.66555523 228.2734375 130.28125 C229.39338009 132.32856586 230.52303329 134.37061103 231.6640625 136.40625 C232.18742187 137.3446875 232.71078125 138.283125 233.25 139.25 C233.72953125 140.10207031 234.2090625 140.95414063 234.703125 141.83203125 C236.10174289 144.64190514 237.01729929 147.45892652 238 150.4375 C238.93453589 152.46944803 239.89414185 154.49000313 240.875 156.5 C244.50762587 164.27275094 248.41777321 172.69639896 248 181.4375 C248.66 181.4375 249.32 181.4375 250 181.4375 C250.19335938 182.36691406 250.38671875 183.29632812 250.5859375 184.25390625 C250.84632813 185.49011719 251.10671875 186.72632813 251.375 188 C251.75785156 189.82724609 251.75785156 189.82724609 252.1484375 191.69140625 C252.93300879 195.35466063 252.93300879 195.35466063 253.953125 198.55249023 C258.3228249 213.76727412 258.48728554 230.12299212 258.39111328 245.82373047 C258.37500612 248.93631776 258.39109085 252.04760729 258.41015625 255.16015625 C258.43040454 274.48015915 256.04943269 292.8083164 251 311.4375 C250.29766071 314.43127026 249.64432887 317.43063196 249 320.4375 C248.34 320.4375 247.68 320.4375 247 320.4375 C246.9175 321.365625 246.835 322.29375 246.75 323.25 C245.99580457 328.5724649 243.92183499 333.44735605 242 338.4375 C241.77747559 339.05318848 241.55495117 339.66887695 241.32568359 340.30322266 C239.61572237 345.00647158 237.63907755 349.47621879 235.375 353.9375 C234.85450073 354.96617187 234.85450073 354.96617187 234.32348633 356.015625 C221.3704372 381.38358004 205.22423111 403.36385093 185.48193359 423.89257812 C184.25392647 425.17278061 183.04095844 426.46738967 181.83203125 427.765625 C176.29083303 433.57856641 169.92283357 438.35939827 163.56152344 443.22949219 C162.23382783 444.2566088 160.92874923 445.31285483 159.62890625 446.375 C148.79900529 454.8715642 137.20617666 462.36995172 124.88427734 468.49609375 C122.85644296 469.50922272 120.84417521 470.54983133 118.83203125 471.59375 C101.6602018 480.4375 101.6602018 480.4375 95 480.4375 C95 481.0975 95 481.7575 95 482.4375 C91.16836326 483.73423689 87.33440122 485.02396284 83.5 486.3125 C82.42234375 486.67730469 81.3446875 487.04210937 80.234375 487.41796875 C71.76952318 490.25679101 63.43666645 492.48908787 54.625 493.9375 C53.47946655 494.12868408 53.47946655 494.12868408 52.31079102 494.32373047 C45.75631791 495.38437676 39.18281705 496.15191757 32.57470703 496.79101562 C28.98390445 496.84860466 28.98390445 496.84860466 26 498.4375 C24.60519267 498.54076712 23.20524915 498.57599661 21.80664062 498.58276367 C20.46889587 498.59233345 20.46889587 498.59233345 19.10412598 498.60209656 C18.1313269 498.60320938 17.15852783 498.6043222 16.15625 498.60546875 C14.65886292 498.61046135 14.65886292 498.61046135 13.13122559 498.61555481 C11.00936342 498.62063178 8.88749323 498.6229629 6.765625 498.62280273 C3.54152897 498.62497206 0.31778462 498.64307175 -2.90625 498.66210938 C-4.96874883 498.66504669 -7.03124929 498.66702922 -9.09375 498.66796875 C-10.05035522 498.67515427 -11.00696045 498.68233978 -11.99255371 498.68974304 C-17.94705369 498.66976611 -23.23787189 497.87539257 -29 496.4375 C-30.74950347 496.14898382 -32.50315499 495.88309242 -34.26171875 495.65625 C-35.59879883 495.47642578 -35.59879883 495.47642578 -36.96289062 495.29296875 C-38.79082011 495.05448619 -40.61894878 494.81752571 -42.44726562 494.58203125 C-47.21286307 493.9383122 -51.43529958 492.98442625 -56 491.4375 C-58.43256145 491.14330444 -60.87118298 490.89696949 -63.3125 490.6875 C-71.75371148 489.80061479 -79.232278 487.22591416 -87.10791016 484.16601562 C-89.71957837 483.16043912 -92.35990317 482.24040014 -95 481.3125 C-99.77211768 479.5615275 -104.40438426 477.60871745 -109 475.4375 C-109.84433594 475.04175781 -110.68867188 474.64601563 -111.55859375 474.23828125 C-132.1534894 464.26932344 -153.93620381 451.94751275 -170 435.4375 C-170.825 434.7775 -171.65 434.1175 -172.5 433.4375 C-175.21597226 431.26472219 -177.56834392 428.92570622 -180 426.4375 C-180.58652344 425.87289063 -181.17304688 425.30828125 -181.77734375 424.7265625 C-186.40520961 420.236158 -190.52243483 415.49097151 -194.53125 410.44140625 C-196.56642101 407.96506684 -198.66265297 405.62134016 -200.828125 403.26171875 C-205.17646461 398.39772366 -208.7201363 393.16191251 -212.25 387.6875 C-213.44058979 385.85799457 -214.6332357 384.02982523 -215.828125 382.203125 C-216.65775757 380.93299561 -216.65775757 380.93299561 -217.50415039 379.63720703 C-219.0276906 377.31857884 -219.0276906 377.31857884 -221.13671875 374.8828125 C-223.90904207 371.24450139 -225.66048064 367.2065287 -227.5625 363.0625 C-227.94857422 362.2375 -228.33464844 361.4125 -228.73242188 360.5625 C-230.90961236 355.88914394 -232.99200641 351.18574694 -235 346.4375 C-235.39960938 345.5196875 -235.79921875 344.601875 -236.2109375 343.65625 C-245 323.12877517 -245 323.12877517 -245 315.4375 C-245.66 315.4375 -246.32 315.4375 -247 315.4375 C-249.06650862 307.91540864 -250.51268928 300.48647972 -251.53125 292.75390625 C-251.93725256 289.88143817 -252.4516448 287.08418844 -253.0625 284.25 C-255.41693637 272.81697495 -255.20359442 261.18115981 -255.1875 249.5625 C-255.18656342 248.69311798 -255.18562683 247.82373596 -255.18466187 246.92800903 C-255.13571508 225.98722457 -253.1547643 206.78261831 -248 186.4375 C-247.34 186.4375 -246.68 186.4375 -246 186.4375 C-245.91363281 185.64988281 -245.82726562 184.86226562 -245.73828125 184.05078125 C-244.74037601 176.31472687 -242.90641015 169.59067257 -239.84521484 162.42822266 C-238.87017926 160.13173503 -237.93024194 157.82196423 -236.98828125 155.51171875 C-232.38292879 144.34735219 -227.29849469 133.7422671 -221 123.4375 C-220.58524414 122.75236328 -220.17048828 122.06722656 -219.74316406 121.36132812 C-209.91581699 105.25601441 -198.05355723 91.0148236 -185 77.4375 C-184.45230957 76.86257813 -183.90461914 76.28765625 -183.34033203 75.6953125 C-175.1228973 67.10510399 -166.52020096 59.54797429 -157 52.4375 C-156.19304687 51.82003906 -155.38609375 51.20257813 -154.5546875 50.56640625 C-148.94787205 46.29200892 -143.37649176 42.46226738 -136.9296875 39.5625 C-134.88109838 38.489409 -134.88109838 38.489409 -133.2109375 36.546875 C-130.38987773 33.85540455 -127.23268468 32.34055603 -123.75 30.6875 C-122.31224602 29.99010669 -120.87475341 29.29217435 -119.4375 28.59375 C-118.70273437 28.23925781 -117.96796875 27.88476562 -117.2109375 27.51953125 C-115.06248334 26.4680793 -112.93560765 25.38286246 -110.8125 24.28125 C-103.82031865 20.66661948 -97.02781932 17.49050745 -89.453125 15.2265625 C-87.04364843 14.5336915 -87.04364843 14.5336915 -85.14453125 13.4375 C-82.03844977 11.98912685 -78.78267555 11.44476076 -75.4375 10.8125 C-74.42913086 10.61140625 -74.42913086 10.61140625 -73.40039062 10.40625 C-70.54817325 9.85110143 -67.91296494 9.4375 -65 9.4375 C-65 8.7775 -65 8.1175 -65 7.4375 C-59.49126678 4.32062961 -53.17070609 3.78208928 -47 2.8125 C-46.28279785 2.69977753 -45.5655957 2.58705505 -44.82666016 2.47091675 C-29.91543556 0.22324507 -15.05773673 -0.03186114 0 0 Z " fill="#010101" transform="translate(449,358.5625)"/>
<path d="M0 0 C2.81433275 0.02387322 5.62772815 0.02049231 8.44213867 0.01391602 C17.75247761 0.02823599 26.73089181 0.25998787 35.85424805 2.33618164 C37.1072168 2.61719727 38.36018555 2.89821289 39.65112305 3.18774414 C40.6256543 3.44297852 41.60018555 3.69821289 42.60424805 3.96118164 C43.6097168 4.22157227 44.61518555 4.48196289 45.65112305 4.75024414 C46.3781543 4.94360352 47.10518555 5.13696289 47.85424805 5.33618164 C47.85424805 5.99618164 47.85424805 6.65618164 47.85424805 7.33618164 C49.07112305 7.43930664 50.28799805 7.54243164 51.54174805 7.64868164 C55.35277171 8.12172828 57.59538907 9.26958814 60.85424805 11.33618164 C62.19891172 11.80207134 63.5547585 12.23617943 64.91674805 12.64868164 C82.22099121 18.22702319 97.4477846 29.35357707 110.85424805 41.33618164 C112.29131132 42.56585887 113.72874846 43.79509947 115.16674805 45.02368164 C131.51527961 59.4832022 147.06153927 80.14912083 153.27612305 101.42211914 C153.91256558 103.65995572 153.91256558 103.65995572 155.41674805 106.96118164 C165.08131418 129.65190214 166.15805727 160.46904013 160.85424805 184.33618164 C160.68763672 185.09302246 160.52102539 185.84986328 160.34936523 186.62963867 C157.3821381 199.86941639 153.9679632 212.73097406 146.86987305 224.43383789 C145.82415943 226.39253993 145.2984192 228.16843327 144.85424805 230.33618164 C144.19424805 230.33618164 143.53424805 230.33618164 142.85424805 230.33618164 C142.58741211 231.05547852 142.32057617 231.77477539 142.0456543 232.51586914 C138.11021105 241.83190201 131.40115164 249.74650359 124.85424805 257.33618164 C124.05889648 258.26688477 123.26354492 259.19758789 122.4440918 260.15649414 C116.75944922 266.6249147 110.69750331 272.11952292 103.85424805 277.33618164 C102.96866211 278.01422852 102.08307617 278.69227539 101.1706543 279.39086914 C83.97770801 292.21695679 83.97770801 292.21695679 76.02612305 294.37524414 C74.9794043 294.69235352 73.93268555 295.00946289 72.85424805 295.33618164 C72.52424805 296.32618164 72.19424805 297.31618164 71.85424805 298.33618164 C69.45581055 299.28540039 69.45581055 299.28540039 66.47924805 300.02368164 C65.50213867 300.27504883 64.5250293 300.52641602 63.51831055 300.78540039 C60.85424805 301.33618164 60.85424805 301.33618164 57.85424805 301.33618164 C57.85424805 301.99618164 57.85424805 302.65618164 57.85424805 303.33618164 C33.07797918 311.69336986 33.07797918 311.69336986 21.85424805 310.33618164 C21.85424805 310.99618164 21.85424805 311.65618164 21.85424805 312.33618164 C3.73954924 312.9528657 -13.92262299 313.08003707 -31.77075195 309.58618164 C-32.75906006 309.39653839 -32.75906006 309.39653839 -33.76733398 309.20306396 C-41.6046468 307.66752719 -48.85526972 305.58648381 -56.14575195 302.33618164 C-57.35102539 301.83344727 -58.55629883 301.33071289 -59.7980957 300.81274414 C-94.91297973 285.32449891 -120.45812061 261.02614793 -140.14575195 228.33618164 C-140.70391602 227.42352539 -141.26208008 226.51086914 -141.8371582 225.57055664 C-145.38600689 219.51102992 -149.14575195 211.43584005 -149.14575195 204.33618164 C-149.80575195 204.33618164 -150.46575195 204.33618164 -151.14575195 204.33618164 C-151.2564502 203.76697998 -151.36714844 203.19777832 -151.48120117 202.61132812 C-151.99125639 199.99815761 -152.50597024 197.38592499 -153.02075195 194.77368164 C-153.19477539 193.87842773 -153.36879883 192.98317383 -153.5480957 192.06079102 C-154.3135071 188.19121119 -155.12314196 184.41465646 -156.21606445 180.62133789 C-158.53344736 172.4326025 -158.32909737 164.21163065 -158.33325195 155.77368164 C-158.34549805 154.49170898 -158.35774414 153.20973633 -158.37036133 151.88891602 C-158.38357551 143.16315358 -157.61566931 134.93165869 -156.14575195 126.33618164 C-155.48575195 126.33618164 -154.82575195 126.33618164 -154.14575195 126.33618164 C-154.10836914 125.63493164 -154.07098633 124.93368164 -154.0324707 124.21118164 C-153.60342655 118.01948568 -152.62456697 112.99889683 -150.14575195 107.33618164 C-149.51656396 105.77536336 -148.8918481 104.21273753 -148.27075195 102.64868164 C-147.9252832 101.80176758 -147.57981445 100.95485352 -147.22387695 100.08227539 C-146.48291416 98.19496798 -145.78719352 96.28946684 -145.13012695 94.37133789 C-140.52769905 81.26090065 -132.96148044 69.9713079 -123.95825195 59.47290039 C-122.016063 57.26647618 -122.016063 57.26647618 -120.14575195 54.33618164 C-119.48575195 54.33618164 -118.82575195 54.33618164 -118.14575195 54.33618164 C-117.90083008 53.76899414 -117.6559082 53.20180664 -117.40356445 52.61743164 C-109.97081409 39.13691545 -91.857458 29.11373863 -79.14575195 21.33618164 C-78.46512695 20.87727539 -77.78450195 20.41836914 -77.08325195 19.94555664 C-70.81262154 15.74827983 -63.77837311 12.33618164 -56.14575195 12.33618164 C-56.14575195 11.67618164 -56.14575195 11.01618164 -56.14575195 10.33618164 C-54.08750767 9.49239189 -52.02395409 8.66154542 -49.95825195 7.83618164 C-48.80969727 7.37211914 -47.66114258 6.90805664 -46.4777832 6.42993164 C-43.42585118 5.42812512 -41.31460123 5.0974736 -38.14575195 5.33618164 C-38.14575195 4.67618164 -38.14575195 4.01618164 -38.14575195 3.33618164 C-25.3527594 0.89753185 -13.01887306 -0.11790591 0 0 Z " fill="#FEFEFE" transform="translate(448.145751953125,451.663818359375)"/>
<path d="M0 0 C2.7109375 1.66796875 2.7109375 1.66796875 5.125 3.4375 C6.28902344 4.26701172 6.28902344 4.26701172 7.4765625 5.11328125 C12.2755537 8.90884701 14.81994381 12.83790008 17.125 18.4375 C17.66125 19.46875 18.1975 20.5 18.75 21.5625 C23.01546763 31.84632767 22.49996409 44.25677277 22.4375 55.1875 C22.43501251 55.88582947 22.43252502 56.58415894 22.42996216 57.3036499 C22.3290325 75.66341001 21.41704464 93.89542857 8.1875 108.0625 C-2.19469265 117.47703197 -13.63279279 116.93715144 -26.875 116.4375 C-34.46706121 115.87065088 -39.29659162 113.59665431 -44.875 108.4375 C-45.48214844 107.91800781 -46.08929687 107.39851563 -46.71484375 106.86328125 C-51.12785701 102.5661458 -53.20163984 97.75868453 -55.25 92.0625 C-55.62632568 91.01968872 -55.62632568 91.01968872 -56.01025391 89.95581055 C-59.37551466 79.84947521 -59.06846007 69.35851558 -59.0625 58.8125 C-59.06289276 58.15196625 -59.06328552 57.4914325 -59.06369019 56.81088257 C-59.04740667 33.95472002 -59.04740667 33.95472002 -55.875 24.4375 C-55.215 24.4375 -54.555 24.4375 -53.875 24.4375 C-53.83375 23.468125 -53.7925 22.49875 -53.75 21.5 C-52.88873872 15.44656358 -49.05934181 10.3185613 -44.51171875 6.40234375 C-43.20654297 5.42974609 -43.20654297 5.42974609 -41.875 4.4375 C-41.03066406 3.80328125 -40.18632813 3.1690625 -39.31640625 2.515625 C-27.94614905 -4.70456546 -12.32133237 -5.79274838 0 0 Z " fill="#080808" transform="translate(582.875,144.5625)"/>
<path d="M0 0 C0 0.66 0 1.32 0 2 C0.721875 2.20625 1.44375 2.4125 2.1875 2.625 C7.08647584 5.02005486 9.39512132 8.24837215 11.125 13.2578125 C13.98159751 25.47486791 12.49760059 38.54616984 6.02661133 49.31176758 C1.67618226 56.16159516 -3.41096427 62.12062475 -9 68 C-10.11130865 69.26459261 -11.21579407 70.53522263 -12.3125 71.8125 C-16.02290534 76.08033713 -19.87517907 80.21493002 -23.73754883 84.3449707 C-29.32830239 90.05761849 -29.32830239 90.05761849 -33 97 C-17.16 97 -1.32 97 15 97 C15 102.28 15 107.56 15 113 C-8.76 113 -32.52 113 -57 113 C-57 97 -57 97 -54.91015625 93.19921875 C-53.97042969 92.37035156 -53.03070313 91.54148437 -52.0625 90.6875 C-51.03896182 89.7229142 -50.01816814 88.7554087 -49 87.78515625 C-48.48953125 87.32125488 -47.9790625 86.85735352 -47.453125 86.37939453 C-45.26528598 84.30256481 -43.43296593 81.98715091 -41.5625 79.625 C-37.60548675 74.71064483 -33.52039616 69.92345047 -29.39331055 65.15234375 C-25.62332952 60.77641865 -22.02502236 56.29021922 -18.5234375 51.6953125 C-18.02070313 51.13585937 -17.51796875 50.57640625 -17 50 C-16.34 50 -15.68 50 -15 50 C-14.7525 49.360625 -14.505 48.72125 -14.25 48.0625 C-12.90502616 44.76731409 -11.46228556 41.52569608 -10 38.28125 C-9.505 37.15203125 -9.505 37.15203125 -9 36 C-8.63648438 35.195625 -8.27296875 34.39125 -7.8984375 33.5625 C-6.33315505 29.09804223 -6.43818825 24.6630375 -7 20 C-9.37444557 15.61640817 -12.33083818 13.64285323 -17 12 C-23.37306406 11.21940658 -29.36672798 11.77165153 -35 15 C-39.18341473 18.84421894 -40.47046844 23.68140162 -42 29 C-47.75 29.125 -47.75 29.125 -50 28 C-51.53668865 27.77532169 -53.07968054 27.59203195 -54.625 27.4375 C-55.44226563 27.35371094 -56.25953125 27.26992187 -57.1015625 27.18359375 C-58.04128906 27.09271484 -58.04128906 27.09271484 -59 27 C-57.92989851 18.32848796 -54.86929497 9.82111917 -48 4 C-47.34 4 -46.68 4 -46 4 C-46 3.34 -46 2.68 -46 2 C-44.75336669 1.49166409 -43.50250613 0.99368855 -42.25 0.5 C-41.55390625 0.2215625 -40.8578125 -0.056875 -40.140625 -0.34375 C-38 -1 -38 -1 -34 -1 C-34 -1.66 -34 -2.32 -34 -3 C-23.31674514 -6.56108495 -10.05188592 -4.49425638 0 0 Z " fill="#060606" transform="translate(450,146)"/>
<path d="M0 0 C5.84161533 -0.32118847 10.01249514 0.97707264 14.8984375 4.1875 C17.15537182 6.44443432 17.77135757 8.22891517 18.8984375 11.1875 C19.2363884 11.81493103 19.57433929 12.44236206 19.92253113 13.08880615 C22.66229257 18.98068332 22.0568457 26.53023833 22.06640625 32.921875 C22.07139885 34.12170013 22.07139885 34.12170013 22.07649231 35.34576416 C22.08151723 37.0264021 22.08390202 38.70704987 22.08374023 40.38769531 C22.08592026 42.91749063 22.10410597 45.44684434 22.12304688 47.9765625 C22.15412282 57.26109957 21.71528333 66.05077275 19.8984375 75.1875 C19.2384375 75.1875 18.5784375 75.1875 17.8984375 75.1875 C17.8159375 75.909375 17.7334375 76.63125 17.6484375 77.375 C16.74129919 80.77676868 15.29832871 82.64216084 12.8984375 85.1875 C12.2384375 85.1875 11.5784375 85.1875 10.8984375 85.1875 C10.8984375 85.8475 10.8984375 86.5075 10.8984375 87.1875 C4.77058017 89.23011911 -2.43205035 88.95021776 -8.6015625 87.1875 C-16.12598203 81.16796437 -17.90200477 72.40268006 -19.1015625 63.1875 C-19.51752294 57.79213031 -19.49421377 52.39034864 -19.43774414 46.98242188 C-19.41402098 44.55825703 -19.41722719 42.13519038 -19.42382812 39.7109375 C-19.40068343 26.60510926 -19.30368961 13.85855196 -10.7265625 3.25 C-7.10135651 0.40162387 -4.45850722 0.39778503 0 0 Z " fill="#F9F9F9" transform="translate(563.1015625,157.8125)"/>
<path d="M0 0 C0.75796875 0.63421875 1.5159375 1.2684375 2.296875 1.921875 C3.163125 2.57542969 4.029375 3.22898437 4.921875 3.90234375 C7.18788434 5.82919709 8.54091433 7.44673348 10.046875 9.984375 C10.45421875 10.65597656 10.8615625 11.32757812 11.28125 12.01953125 C14.6613285 18.35067828 14.21616046 26.92240325 13.296875 33.921875 C10.86318399 41.01061256 6.59416191 47.48287432 -0.015625 51.234375 C-0.5725 51.46125 -1.129375 51.688125 -1.703125 51.921875 C-1.703125 52.581875 -1.703125 53.241875 -1.703125 53.921875 C-13.1566044 57.228034 -23.40860808 58.68991957 -34.703125 53.921875 C-40.62522237 50.1148124 -44.44726755 45.0759389 -47.703125 38.921875 C-48.30125 37.87 -48.899375 36.818125 -49.515625 35.734375 C-51.9973975 27.76657909 -51.77207845 20.31101253 -48.328125 12.671875 C-44.26061945 5.44607103 -38.41297731 -0.88708217 -30.640625 -4.140625 C-19.7670096 -6.90248469 -9.14492276 -6.81500613 0 0 Z " fill="#F9F9F9" transform="translate(321.703125,725.078125)"/>
<path d="M0 0 C6.6 0 13.2 0 20 0 C20 0.66 20 1.32 20 2 C20.804375 1.979375 21.60875 1.95875 22.4375 1.9375 C25 2 25 2 26 3 C26.09858603 4.4555937 26.12972143 5.91607919 26.125 7.375 C26.12886719 8.56222656 26.12886719 8.56222656 26.1328125 9.7734375 C26 12 26 12 25 15 C23.83082031 14.94199219 22.66164063 14.88398438 21.45703125 14.82421875 C19.9088942 14.77730551 18.36071383 14.73180702 16.8125 14.6875 C15.65911133 14.6246582 15.65911133 14.6246582 14.48242188 14.56054688 C10.26200766 14.46998005 8.51347364 14.62076784 5.01171875 17.20703125 C2.91967541 20.1115186 2.29560023 21.48909897 2 25 C1.89558594 26.17175781 1.79117187 27.34351563 1.68359375 28.55078125 C1.60238281 29.79214844 1.52117187 31.03351563 1.4375 32.3125 C1.2209375 35.6228125 1.2209375 35.6228125 1 39 C8.59 39 16.18 39 24 39 C24 43.29 24 47.58 24 52 C16.41 52 8.82 52 1 52 C1 74.77 1 97.54 1 121 C-5.27 121 -11.54 121 -18 121 C-18 98.56 -18 76.12 -18 53 C-21.96 53 -25.92 53 -30 53 C-30 48.38 -30 43.76 -30 39 C-26.04 39 -22.08 39 -18 39 C-18.02320313 37.87722656 -18.04640625 36.75445312 -18.0703125 35.59765625 C-18.38490765 14.73417221 -18.38490765 14.73417221 -10.65625 6.62890625 C-10.1096875 6.09136719 -9.563125 5.55382812 -9 5 C-8.34 4.34 -7.68 3.68 -7 3 C-4.67724823 2.59952556 -2.34260643 2.2602896 0 2 C0 1.34 0 0.68 0 0 Z " fill="#0A0A0A" transform="translate(322,138)"/>
<path d="M0 0 C1.98 0 3.96 0 6 0 C6 26.73 6 53.46 6 81 C4.35 81 2.7 81 1 81 C1 79.02 1 77.04 1 75 C-1.475 75.99 -1.475 75.99 -4 77 C-4 77.66 -4 78.32 -4 79 C-11.88195126 82.20621746 -20.35989047 83.708381 -28.6953125 81.18359375 C-34.21917506 78.34676264 -37.68694037 72.60003909 -40 67 C-42.41968621 57.47354311 -42.35703591 44.92862282 -38 36 C-34.42358724 30.07370065 -29.63855628 26.8320691 -23 25 C-14.23270824 23.45111179 -8.6370897 26.67804242 0 30 C0 20.1 0 10.2 0 0 Z " fill="#F8F8F8" transform="translate(505,41)"/>
<path d="M0 0 C2.83439137 -0.10901505 5.66450203 -0.18777904 8.5 -0.25 C9.29148437 -0.28351563 10.08296875 -0.31703125 10.8984375 -0.3515625 C17.906225 -0.46644426 23.17948925 1.33194929 28.3125 6.1875 C32.43239352 13.0539892 33.55853729 20.02432256 33.5 27.9375 C33.49572998 28.81414307 33.49145996 29.69078613 33.48706055 30.59399414 C33.26390478 39.07154767 30.85056892 44.27842391 25.75 50.9375 C18.64093186 56.26930111 10.65696486 56.82996201 2 56 C-2.97611536 55.09934564 -6.6818398 53.79976263 -10.0625 49.9375 C-12 47 -12 47 -12 45 C-12.66 45 -13.32 45 -14 45 C-15.76697913 38.89332012 -16.36538621 33.34509848 -16.375 27 C-16.41173828 25.72382812 -16.41173828 25.72382812 -16.44921875 24.421875 C-16.48153296 17.39892013 -14.60246592 12.59031293 -10.5078125 6.94140625 C-7.17821223 3.62121163 -4.89407972 2.23305142 0 2 C0 1.34 0 0.68 0 0 Z " fill="#F8F8F8" transform="translate(570,67)"/>
<path d="M0 0 C8.2526073 -0.46639539 14.20734666 2.48064065 20.55078125 7.609375 C24.07199989 12.090926 26.13721325 16.47112302 25.61328125 22.234375 C23.23828125 22.359375 23.23828125 22.359375 20.61328125 22.234375 C18.36998522 19.99107897 18.14182816 18.86376756 17.36328125 15.859375 C16.2233186 12.2782802 15.69914576 11.30903979 12.73828125 8.734375 C5.3376531 5.18207349 -4.28941457 4.82151149 -12.01171875 7.484375 C-15.37645623 9.96365525 -17.16868275 11.82401601 -17.8203125 16.0390625 C-17.82845287 22.4373922 -17.72055364 26.39067718 -13.38671875 31.234375 C-11.14195096 33.47914279 -10.40694232 33.58083588 -7.38671875 34.109375 C-2.0895166 35.19598057 2.65522526 37.11507977 7.61328125 39.234375 C8.38929688 39.53214844 9.1653125 39.82992187 9.96484375 40.13671875 C15.95999082 42.53683777 22.61929638 46.24640526 25.61328125 52.234375 C26.24045675 60.161462 26.73785605 66.86328201 21.61328125 73.234375 C16.93438215 78.18850346 10.8924653 80.01370929 4.19873047 80.35888672 C-1.66509668 80.4880083 -7.52446687 80.4007708 -13.38671875 80.234375 C-13.38671875 79.574375 -13.38671875 78.914375 -13.38671875 78.234375 C-14.10859375 78.1725 -14.83046875 78.110625 -15.57421875 78.046875 C-19.28647525 76.97444534 -20.89892943 75.13679587 -23.38671875 72.234375 C-23.71671875 71.244375 -24.04671875 70.254375 -24.38671875 69.234375 C-25.04671875 69.234375 -25.70671875 69.234375 -26.38671875 69.234375 C-27.70298567 65.61464098 -28.38671875 63.13870369 -28.38671875 59.234375 C-26.73671875 59.234375 -25.08671875 59.234375 -23.38671875 59.234375 C-22.80921875 60.265625 -22.23171875 61.296875 -21.63671875 62.359375 C-17.60733853 70.08546846 -17.60733853 70.08546846 -10.38671875 74.234375 C-7.23658846 74.5402951 -4.11230616 74.55905009 -0.94921875 74.546875 C-0.11583984 74.56298828 0.71753906 74.57910156 1.57617188 74.59570312 C7.50927353 74.60039332 11.72575966 73.62404804 16.42578125 69.734375 C19.80386215 65.46732545 19.11046222 59.35684561 18.61328125 54.234375 C16.3149097 49.19984684 11.75836886 47.51570794 6.8828125 45.4140625 C3.30118975 44.12176851 -0.31704597 43.19070267 -4.01171875 42.296875 C-11.62881777 40.35966772 -18.27922859 37.7278783 -22.94921875 31.109375 C-25.6107956 25.61529434 -25.19548787 18.91728232 -23.9140625 13.08203125 C-21.92221015 7.63127363 -18.02297477 4.62187817 -13.01171875 1.984375 C-8.70024078 0.75252415 -4.43256861 0.43527679 0 0 Z " fill="#282828" transform="translate(323.38671875,42.765625)"/>
<path d="M0 0 C1.98 0 3.96 0 6 0 C6 26.73 6 53.46 6 81 C4.35 81 2.7 81 1 81 C1 79.02 1 77.04 1 75 C-1.475 75.99 -1.475 75.99 -4 77 C-4 77.66 -4 78.32 -4 79 C-11.88195126 82.20621746 -20.35989047 83.708381 -28.6953125 81.18359375 C-34.21917506 78.34676264 -37.68694037 72.60003909 -40 67 C-42.41968621 57.47354311 -42.35703591 44.92862282 -38 36 C-34.42358724 30.07370065 -29.63855628 26.8320691 -23 25 C-14.23270824 23.45111179 -8.6370897 26.67804242 0 30 C0 20.1 0 10.2 0 0 Z M-31.25 36.3125 C-34.88817099 41.89969116 -35.38958953 47.8892252 -35.375 54.375 C-35.37338867 55.12160889 -35.37177734 55.86821777 -35.37011719 56.63745117 C-35.21151667 63.77525192 -33.58409952 68.94606421 -28.9375 74.4375 C-24.25350109 78.21491848 -21.18776778 78.58869019 -15.29296875 78.53125 C-9.48243121 77.59384418 -4.16042005 74.16042005 0 70 C0.08847743 67.47905924 0.11527301 64.98569107 0.09765625 62.46484375 C0.0962413 61.71159317 0.09482635 60.95834259 0.09336853 60.18226624 C0.08775376 57.7673044 0.07519883 55.35243399 0.0625 52.9375 C0.0574869 51.30403779 0.05292366 49.67057414 0.04882812 48.03710938 C0.03777954 44.02470415 0.02050506 40.01236759 0 36 C-0.99 35.67 -1.98 35.34 -3 35 C-3.33 34.01 -3.66 33.02 -4 32 C-14.26343849 28.38879016 -23.39167131 28.2358844 -31.25 36.3125 Z " fill="#222222" transform="translate(505,41)"/>
<path d="M0 0 C2.83439137 -0.10901505 5.66450203 -0.18777904 8.5 -0.25 C9.29148437 -0.28351563 10.08296875 -0.31703125 10.8984375 -0.3515625 C17.906225 -0.46644426 23.17948925 1.33194929 28.3125 6.1875 C32.43239352 13.0539892 33.55853729 20.02432256 33.5 27.9375 C33.49572998 28.81414307 33.49145996 29.69078613 33.48706055 30.59399414 C33.26390478 39.07154767 30.85056892 44.27842391 25.75 50.9375 C18.64093186 56.26930111 10.65696486 56.82996201 2 56 C-2.97611536 55.09934564 -6.6818398 53.79976263 -10.0625 49.9375 C-12 47 -12 47 -12 45 C-12.66 45 -13.32 45 -14 45 C-15.76697913 38.89332012 -16.36538621 33.34509848 -16.375 27 C-16.41173828 25.72382812 -16.41173828 25.72382812 -16.44921875 24.421875 C-16.48153296 17.39892013 -14.60246592 12.59031293 -10.5078125 6.94140625 C-7.17821223 3.62121163 -4.89407972 2.23305142 0 2 C0 1.34 0 0.68 0 0 Z M-6.8125 10.8125 C-12.13159556 18.5631821 -11.90119996 27.68292021 -10.375 36.6875 C-8.25102829 41.80434093 -5.74413198 47.53026151 -0.6953125 50.234375 C5.12495587 51.88766862 11.73560646 52.14972351 17.484375 50.125 C22.13985407 47.46472624 25.07616372 44.06393135 27 39 C27.53056087 35.50255693 27.51529379 32.09333414 27.4375 28.5625 C27.44458984 27.65951172 27.45167969 26.75652344 27.45898438 25.82617188 C27.40312943 19.89265761 26.51136913 15.3909919 24 10 C19.4604375 5.57683654 15.50623008 3.70611335 9.1875 3.625 C1.83995066 3.76801799 -1.57257139 5.57257139 -6.8125 10.8125 Z " fill="#171717" transform="translate(570,67)"/>
<path d="M0 0 C1.65 0 3.3 0 5 0 C5.01458252 1.21059082 5.02916504 2.42118164 5.04418945 3.66845703 C5.10231685 8.17509981 5.1795489 12.68125049 5.26245117 17.1875 C5.29563265 19.13500968 5.32368557 21.08261397 5.34643555 23.03027344 C5.38010634 25.83569515 5.43242827 28.64025528 5.48828125 31.4453125 C5.49467117 32.31116974 5.5010611 33.17702698 5.50764465 34.06912231 C5.64970314 39.95694236 6.77950442 44.04349746 10.390625 48.8515625 C13.74768304 51.24713305 18.07950956 50.43760826 22 50 C25.67165685 48.91452913 25.67165685 48.91452913 29 47 C30.01199463 46.53935905 30.01199463 46.53935905 31.04443359 46.06941223 C35.33380243 43.89840396 35.33380243 43.89840396 37.74072266 39.92977905 C38.02334271 37.36507525 38.05609635 34.90388003 38 32.32421875 C38.01087646 31.3990596 38.02175293 30.47390045 38.03295898 29.52070618 C38.05908824 26.57511484 38.03029408 23.63299822 38 20.6875 C38.00809267 18.686831 38.01977059 16.68617308 38.03515625 14.68554688 C38.06498938 9.78952057 38.04558136 4.89588158 38 0 C39.65 0 41.3 0 43 0 C43 17.82 43 35.64 43 54 C41.35 54 39.7 54 38 54 C38 52.02 38 50.04 38 48 C37.34 48 36.68 48 36 48 C36 48.66 36 49.32 36 50 C34.44148245 50.82011312 32.87798284 51.63076213 31.3125 52.4375 C30.00732422 53.11619141 30.00732422 53.11619141 28.67578125 53.80859375 C22.10915572 56.73241972 14.43259087 57.14419696 7.625 54.875 C3.60469914 52.00335653 1.54907647 48.64722941 0 44 C-0.08630926 42.54218278 -0.11770981 41.08072526 -0.11352539 39.62036133 C-0.11344986 38.73967484 -0.11337433 37.85898834 -0.11329651 36.95161438 C-0.10813522 36.00465195 -0.10297394 35.05768951 -0.09765625 34.08203125 C-0.0962413 33.10965012 -0.09482635 32.13726898 -0.09336853 31.13542175 C-0.08776817 28.02774996 -0.07521562 24.92015004 -0.0625 21.8125 C-0.05748505 19.70638125 -0.05292213 17.60026137 -0.04882812 15.49414062 C-0.03779862 10.32939936 -0.02053375 5.16471187 0 0 Z " fill="#0C0C0C" transform="translate(403,68)"/>
<path d="M0 0 C7.71883253 0.65692192 14.34527711 2.98117558 20.0625 8.375 C23.88505194 13.11318648 23.80773162 17.81416874 23.4921875 23.71484375 C22.65765565 29.28501266 20.75149988 32.14547072 16.875 36.25 C6.72504062 42.42823614 -4.53371269 41.3254623 -16 41 C-16 40.34 -16 39.68 -16 39 C-16.721875 38.938125 -17.44375 38.87625 -18.1875 38.8125 C-21.8997565 37.74007034 -23.51221068 35.90242087 -26 33 C-26.495 31.515 -26.495 31.515 -27 30 C-27.66 30 -28.32 30 -29 30 C-30.31626692 26.38026598 -31 23.90432869 -31 20 C-29.35 20 -27.7 20 -26 20 C-25.4225 21.03125 -24.845 22.0625 -24.25 23.125 C-20.22061978 30.85109346 -20.22061978 30.85109346 -13 35 C-9.84986971 35.3059201 -6.72558741 35.32467509 -3.5625 35.3125 C-2.72912109 35.32861328 -1.89574219 35.34472656 -1.03710938 35.36132812 C4.89599228 35.36601832 9.11247841 34.38967304 13.8125 30.5 C17.18158073 26.24431908 16.51786341 20.11108666 16 15 C13.69565081 10.48731617 10.32970876 8.95727142 5.90625 6.90234375 C3.66320277 5.84057344 1.79621713 4.72137475 0 3 C0 2.01 0 1.02 0 0 Z " fill="#151515" transform="translate(326,82)"/>
<path d="M0 0 C1.65 0 3.3 0 5 0 C5 5.28 5 10.56 5 16 C10.28 16 15.56 16 21 16 C21 17.32 21 18.64 21 20 C15.72 20 10.44 20 5 20 C5.06885529 25.90862048 5.15681197 31.81653184 5.26245117 37.72460938 C5.29569726 39.73429499 5.32373019 41.74407391 5.34643555 43.75390625 C5.37998722 46.64363347 5.43230337 49.53250593 5.48828125 52.421875 C5.49467117 53.31992859 5.5010611 54.21798218 5.50764465 55.14324951 C5.61428025 60.04792241 5.61428025 60.04792241 7.36328125 64.56054688 C9.71654334 66.63018191 11.59830314 66.60462603 14.6875 66.75 C16.17830078 66.83507812 16.17830078 66.83507812 17.69921875 66.921875 C18.45847656 66.94765625 19.21773438 66.9734375 20 67 C20 66.34 20 65.68 20 65 C22.475 64.505 22.475 64.505 25 64 C25.33 65.65 25.66 67.3 26 69 C21.59110267 70.66005738 17.70835108 71.40245736 13 71.5625 C11.824375 71.62566406 10.64875 71.68882813 9.4375 71.75390625 C5.20175268 70.82492985 3.9221536 69.4510148 1.25482178 66.16926575 C-1.05028089 62.18433311 -0.73612188 58.18377514 -0.5859375 53.69140625 C-0.57744781 52.72468491 -0.56895813 51.75796356 -0.56021118 50.76194763 C-0.52680092 47.69429952 -0.45154474 44.62934452 -0.375 41.5625 C-0.34488441 39.47464752 -0.3175114 37.38675355 -0.29296875 35.29882812 C-0.22705002 30.19819156 -0.12361396 25.0995513 0 20 C-2.97 20 -5.94 20 -9 20 C-9 18.68 -9 17.36 -9 16 C-6.03 16 -3.06 16 0 16 C0 10.72 0 5.44 0 0 Z " fill="#0D0D0D" transform="translate(367,52)"/>
<path d="M0 0 C2.82241407 2.67767489 3.2673769 3.48473019 3.4375 7.3125 C3.49808594 8.02019531 3.55867188 8.72789062 3.62109375 9.45703125 C3.84771816 13.59807728 3.81088109 15.71509026 1.5625 19.3125 C-2.63631743 23.26432817 -6.84978164 22.69645124 -12.41015625 22.671875 C-15.50097529 22.31951397 -16.6712717 22.09778968 -18.8125 19.9375 C-22.02980821 15.11153768 -22.36228821 11.05163957 -21.5625 5.3125 C-17.27112031 -2.9885858 -7.79495792 -3.69234849 0 0 Z " fill="#0C0C0C" transform="translate(503.5625,238.6875)"/>
<path d="M0 0 C1.98 0 3.96 0 6 0 C6 18.15 6 36.3 6 55 C4.02 55 2.04 55 0 55 C0 36.85 0 18.7 0 0 Z " fill="#3E3E3E" transform="translate(531,67)"/>
<path d="M0 0 C0.33 0 0.66 0 1 0 C1.07476563 1.19496094 1.14953125 2.38992187 1.2265625 3.62109375 C1.98829395 16.54708986 1.98829395 16.54708986 9 27 C14.69168042 29.92275481 20.76654979 29.86053431 27 29 C29.88893873 27.70960737 32.3071634 26.24463724 34.87890625 24.41015625 C36.97024125 23.01978436 38.54893184 22.43908024 41 22 C40.7151876 25.32281131 40.04262581 26.94405362 38 29.625 C30.8799524 35.26170435 22.84343943 35.84783973 14 35 C9.02388464 34.09934564 5.3181602 32.79976263 1.9375 28.9375 C0 26 0 26 0 24 C-0.66 24 -1.32 24 -2 24 C-2.33 21.36 -2.66 18.72 -3 16 C-2.67 16.99 -2.34 17.98 -2 19 C-1.34 19 -0.68 19 0 19 C0 12.73 0 6.46 0 0 Z " fill="#1B1B1B" transform="translate(558,88)"/>
<path d="M0 0 C0.99 0.33 1.98 0.66 3 1 C4.29740245 4.25488684 4.16760179 7.72236291 4.3125 11.1875 C4.82898397 18.47566268 6.37867189 25.00012525 12 30 C15.03525486 32.02350324 16.19426202 32.32124018 19.6875 32.625 C20.49574219 32.69976562 21.30398438 32.77453125 22.13671875 32.8515625 C22.75160156 32.90054688 23.36648438 32.94953125 24 33 C23.34 33.66 22.68 34.32 22 35 C24.64 35 27.28 35 30 35 C26.49308963 37.16073695 23.63838074 37.268848 19.5625 37.25 C18.45003906 37.25515625 17.33757812 37.2603125 16.19140625 37.265625 C12.17762327 36.93155249 9.33670678 36.19502819 6.3046875 33.484375 C5.59699219 32.62585938 5.59699219 32.62585938 4.875 31.75 C4.39804687 31.18796875 3.92109375 30.6259375 3.4296875 30.046875 C-0.65490114 24.19899399 -1.4312871 19.82056188 -1.25 12.875 C-1.24484375 12.07707031 -1.2396875 11.27914062 -1.234375 10.45703125 C-1.18539668 6.78977974 -0.99218677 3.54821101 0 0 Z " fill="#1D1D1D" transform="translate(466,86)"/>
<path d="M0 0 C1.32 0 2.64 0 4 0 C4 16.83 4 33.66 4 51 C2.515 51.495 2.515 51.495 1 52 C1 50.02 1 48.04 1 46 C-0.32 45.34 -1.64 44.68 -3 44 C-2.34 43.01 -1.68 42.02 -1 41 C-0.67508765 39.04479191 -0.67508765 39.04479191 -0.68115234 36.89575195 C-0.66128265 36.07512772 -0.64141296 35.25450348 -0.62094116 34.40901184 C-0.60938995 33.52767075 -0.59783875 32.64632965 -0.5859375 31.73828125 C-0.56657135 30.83248825 -0.5472052 29.92669525 -0.5272522 28.99345398 C-0.46746458 26.09989849 -0.42107432 23.2063032 -0.375 20.3125 C-0.33681946 18.35089409 -0.29776769 16.38930494 -0.2578125 14.42773438 C-0.16176368 9.6186256 -0.07772957 4.80943834 0 0 Z " fill="#050505" transform="translate(441,69)"/>
<path d="M0 0 C1.65 0 3.3 0 5 0 C5.5775 1.03125 6.155 2.0625 6.75 3.125 C10.80528389 10.79329084 10.80528389 10.79329084 18 15 C20.50715154 15.27124251 20.50715154 15.27124251 23.08203125 15.1953125 C24.01337891 15.18886719 24.94472656 15.18242188 25.90429688 15.17578125 C26.86400391 15.15902344 27.82371094 15.14226562 28.8125 15.125 C29.79154297 15.11597656 30.77058594 15.10695313 31.77929688 15.09765625 C34.18645061 15.07417182 36.59309743 15.0413284 39 15 C38.67 15.66 38.34 16.32 38 17 C35.45975996 17.47574438 32.99948536 17.84007547 30.4375 18.125 C29.72658203 18.21136719 29.01566406 18.29773438 28.28320312 18.38671875 C26.52310688 18.59934783 24.76165836 18.80072697 23 19 C23 19.66 23 20.32 23 21 C20.36 21 17.72 21 15 21 C15 20.34 15 19.68 15 19 C14.278125 18.938125 13.55625 18.87625 12.8125 18.8125 C9.1002435 17.74007034 7.48778932 15.90242087 5 13 C4.67 12.01 4.34 11.02 4 10 C3.34 10 2.68 10 2 10 C0.68373308 6.38026598 0 3.90432869 0 0 Z " fill="#2C2C2C" transform="translate(295,102)"/>
<path d="M0 0 C0.66 0.99 1.32 1.98 2 3 C1.34 3.66 0.68 4.32 0 5 C-0.44859375 5.46535156 -0.8971875 5.93070313 -1.359375 6.41015625 C-3 8 -3 8 -5.078125 9.62109375 C-7.70541905 11.70442045 -7.70541905 11.70442045 -11 16 C-11.33 20.62 -11.66 25.24 -12 30 C11.1 30 34.2 30 58 30 C58 25.38 58 20.76 58 16 C41.83 16 25.66 16 9 16 C9.33 15.01 9.66 14.02 10 13 C10.33 13.66 10.66 14.32 11 15 C26.84 15 42.68 15 59 15 C59 20.28 59 25.56 59 31 C35.24 31 11.48 31 -13 31 C-13 15 -13 15 -10.6640625 10.91796875 C-9.1875 9.47460938 -9.1875 9.47460938 -7.625 8.1875 C-6.61647662 7.24424908 -5.60863839 6.30026495 -4.6015625 5.35546875 C-3.74304688 4.57816406 -2.88453125 3.80085937 -2 3 C-1.34 2.01 -0.68 1.02 0 0 Z " fill="#656565" transform="translate(406,228)"/>
<path d="M0 0 C0.66 0.33 1.32 0.66 2 1 C2 2.32 2 3.64 2 5 C0.51863297 6.15217435 -0.96477179 7.30197383 -2.46484375 8.4296875 C-5.2878187 11.31731074 -6.04727477 15.16402735 -7 19 C-7.66 19 -8.32 19 -9 19 C-8.91621094 20.12019531 -8.83242188 21.24039063 -8.74609375 22.39453125 C-8.64291555 23.86716556 -8.54006821 25.33982308 -8.4375 26.8125 C-8.38142578 27.55048828 -8.32535156 28.28847656 -8.26757812 29.04882812 C-8.04230276 32.36788516 -7.93744188 34.81232564 -9 38 C-9.66 38 -10.32 38 -11 38 C-11 37.01 -11 36.02 -11 35 C-11.66 35 -12.32 35 -13 35 C-13.11760715 31.83365364 -13.18771024 28.66787926 -13.25 25.5 C-13.30027344 24.1696875 -13.30027344 24.1696875 -13.3515625 22.8125 C-13.45791019 15.58085681 -11.83374131 10.65129993 -7.40234375 4.94140625 C-4.95357221 2.63629598 -3.22579584 1.07526528 0 0 Z " fill="#1A1A1A" transform="translate(567,69)"/>
<path d="M0 0 C0 0.33 0 0.66 0 1 C-0.95712891 1.09087891 -0.95712891 1.09087891 -1.93359375 1.18359375 C-2.75988281 1.26738281 -3.58617187 1.35117188 -4.4375 1.4375 C-5.67306641 1.55931641 -5.67306641 1.55931641 -6.93359375 1.68359375 C-8.98662025 1.78930815 -8.98662025 1.78930815 -10 3 C-9.14535156 3.04898438 -8.29070312 3.09796875 -7.41015625 3.1484375 C-5.75306641 3.26058594 -5.75306641 3.26058594 -4.0625 3.375 C-2.40927734 3.47941406 -2.40927734 3.47941406 -0.72265625 3.5859375 C0.62505859 3.79089844 0.62505859 3.79089844 2 4 C2.33 4.66 2.66 5.32 3 6 C2.13117188 5.95359375 1.26234375 5.9071875 0.3671875 5.859375 C-6.80239349 5.58020519 -6.80239349 5.58020519 -13.5625 7.625 C-18.95418317 12.87843488 -20.77667118 17.75660566 -22 25 C-22.33 23.68 -22.66 22.36 -23 21 C-23.66 21 -24.32 21 -25 21 C-26.10514766 24.31544299 -26.32107631 27.20410111 -26.5625 30.6875 C-26.64628906 31.86699219 -26.73007812 33.04648438 -26.81640625 34.26171875 C-26.87699219 35.16535156 -26.93757813 36.06898437 -27 37 C-27.33 37 -27.66 37 -28 37 C-28.72031412 15.49728947 -28.72031412 15.49728947 -22.375 7.125 C-16.05947339 0.54503016 -8.79577771 -0.66106054 0 0 Z " fill="#2A2A2A" transform="translate(492,66)"/>
<path d="M0 0 C7.11100594 0.36563683 13.64146689 1.31413693 20.5078125 3.171875 C27.21598674 4.76262773 34.06077058 5.66218768 40.87866211 6.65869141 C42.37356633 6.89921116 43.86102646 7.18847779 45.34013367 7.51225281 C47.85409038 7.97324414 50.12833893 8.13287672 52.67919922 8.14526367 C53.57718231 8.15164352 54.47516541 8.15802338 55.40036011 8.16459656 C56.35878815 8.16570938 57.31721619 8.1668222 58.3046875 8.16796875 C59.30202911 8.17129715 60.29937073 8.17462555 61.32693481 8.17805481 C63.4332839 8.18310909 65.53964095 8.1854636 67.64599609 8.18530273 C70.85658049 8.18748747 74.06682016 8.20565444 77.27734375 8.22460938 C79.32812383 8.22754401 81.37890554 8.22952834 83.4296875 8.23046875 C84.38406708 8.23765427 85.33844666 8.24483978 86.32174683 8.25224304 C91.64251283 8.23414036 95.95397667 7.67653935 101 6 C103.61167275 5.59267489 106.18965479 5.23196589 108.8125 4.9375 C109.50666016 4.85516113 110.20082031 4.77282227 110.91601562 4.68798828 C116.27053259 4.06031162 121.63110554 3.49042786 127 3 C122.35459434 7.64540566 113.21525583 7.27371679 106.93359375 7.75390625 C104.99589825 7.80004402 104.99589825 7.80004402 104 9 C97.21904028 9.97422649 90.56073999 10.14670213 83.71875 10.1328125 C82.13846008 10.13424759 82.13846008 10.13424759 80.52624512 10.13571167 C78.31095316 10.13638859 76.09565917 10.13456855 73.88037109 10.13037109 C70.51004537 10.12501596 67.13985288 10.13033277 63.76953125 10.13671875 C61.60677054 10.13605788 59.44400992 10.13477654 57.28125 10.1328125 C56.28411987 10.13483673 55.28698975 10.13686096 54.25964355 10.13894653 C41.58771949 10.0969572 29.76238215 7.66789559 17.47265625 4.796875 C11.66294803 3.46371361 5.83176814 2.23280256 0 1 C0 0.67 0 0.34 0 0 Z " fill="#8C8C8C" transform="translate(381,848)"/>
<path d="M0 0 C0.99 0 1.98 0 3 0 C3 16.83 3 33.66 3 51 C2.01 51 1.02 51 0 51 C0 34.17 0 17.34 0 0 Z " fill="#000000" transform="translate(533,69)"/>
<path d="M0 0 C2.81433275 0.02387322 5.62772815 0.02049231 8.44213867 0.01391602 C17.75247761 0.02823599 26.73089181 0.25998787 35.85424805 2.33618164 C37.1072168 2.61719727 38.36018555 2.89821289 39.65112305 3.18774414 C41.11291992 3.5705957 41.11291992 3.5705957 42.60424805 3.96118164 C43.6097168 4.22157227 44.61518555 4.48196289 45.65112305 4.75024414 C46.3781543 4.94360352 47.10518555 5.13696289 47.85424805 5.33618164 C43.86754729 6.86952809 40.25234882 5.82489819 36.22924805 4.96118164 C25.63638885 2.73110602 15.29979763 2.14124637 4.47924805 2.14868164 C3.25713623 2.1494873 2.03502441 2.15029297 0.77587891 2.15112305 C-6.71301686 2.20111764 -14.129613 2.47455854 -21.58325195 3.21118164 C-22.38617676 3.28957275 -23.18910156 3.36796387 -24.01635742 3.44873047 C-28.05682369 3.90590191 -31.41688286 4.76346134 -35.14575195 6.33618164 C-37.8215332 6.75024414 -37.8215332 6.75024414 -40.45825195 6.96118164 C-41.34125977 7.03594727 -42.22426758 7.11071289 -43.1340332 7.18774414 C-43.79790039 7.23672852 -44.46176758 7.28571289 -45.14575195 7.33618164 C-43.14575195 5.33618164 -43.14575195 5.33618164 -40.52075195 5.21118164 C-39.73700195 5.25243164 -38.95325195 5.29368164 -38.14575195 5.33618164 C-38.14575195 4.67618164 -38.14575195 4.01618164 -38.14575195 3.33618164 C-25.3527594 0.89753185 -13.01887306 -0.11790591 0 0 Z " fill="#959595" transform="translate(448.145751953125,451.663818359375)"/>
<path d="M0 0 C1.35070126 0.12689596 2.70657744 0.20170343 4.0625 0.24609375 C4.85914063 0.27896484 5.65578125 0.31183594 6.4765625 0.34570312 C8.15871678 0.40689604 9.84101747 0.46418863 11.5234375 0.51757812 C12.32007813 0.55173828 13.11671875 0.58589844 13.9375 0.62109375 C14.66839844 0.6461499 15.39929688 0.67120605 16.15234375 0.69702148 C18 1 18 1 20 3 C18.77023437 2.96519531 17.54046875 2.93039063 16.2734375 2.89453125 C14.64063873 2.86637955 13.0078251 2.83908087 11.375 2.8125 C10.56675781 2.78736328 9.75851562 2.76222656 8.92578125 2.73632812 C3.83907492 2.67429512 0.41316245 3.1785819 -4 6 C-5.77409808 7.92022703 -5.77409808 7.92022703 -7 10 C-7.99 11.485 -7.99 11.485 -9 13 C-9.99 13 -10.98 13 -12 13 C-12.99 13.495 -12.99 13.495 -14 14 C-12.75076847 8.32167486 -11.13628458 5.13628458 -7 1 C-2.65168539 -1.3258427 -2.65168539 -1.3258427 0 0 Z " fill="#2B2B2B" transform="translate(313,46)"/>
<path d="M0 0 C1.65 0 3.3 0 5 0 C5 17.82 5 35.64 5 54 C3.35 54 1.7 54 0 54 C0 52.02 0 50.04 0 48 C-0.66 48 -1.32 48 -2 48 C-2 48.66 -2 49.32 -2 50 C-3.98 50.495 -3.98 50.495 -6 51 C-5.505 48.03 -5.505 48.03 -5 45 C-0.92248817 45.95141943 0.56989037 46.35483555 3 50 C3.33 33.83 3.66 17.66 4 1 C2.68 0.67 1.36 0.34 0 0 Z " fill="#181818" transform="translate(441,68)"/>
<path d="M0 0 C-0.33 1.65 -0.66 3.3 -1 5 C-1.66 5 -2.32 5 -3 5 C-3 4.34 -3 3.68 -3 3 C-9.93 2.67 -16.86 2.34 -24 2 C-23.67 1.01 -23.34 0.02 -23 -1 C-6.4673913 -3.44927536 -6.4673913 -3.44927536 0 0 Z " fill="#161616" transform="translate(336,45)"/>
<path d="M0 0 C1.3006046 3.9534251 1.14720431 7.95100248 1.125 12.0625 C1.12886719 12.78244141 1.13273438 13.50238281 1.13671875 14.24414062 C1.13080799 17.42708639 1.01350713 19.95947862 0 23 C-0.66 23 -1.32 23 -2 23 C-2 22.01 -2 21.02 -2 20 C-2.66 20 -3.32 20 -4 20 C-4.1081866 17.41554227 -4.18737237 14.83562648 -4.25 12.25 C-4.28351562 11.52039063 -4.31703125 10.79078125 -4.3515625 10.0390625 C-4.41902625 6.32855625 -4.34327652 4.42843039 -1.984375 1.484375 C-1.32953125 0.99453125 -0.6746875 0.5046875 0 0 Z " fill="#080808" transform="translate(558,84)"/>
<path d="M0 0 C3.5625 0.1875 3.5625 0.1875 5.5625 2.1875 C5.1875 5.8125 5.1875 5.8125 4.5625 9.1875 C1.9225 9.1875 -0.7175 9.1875 -3.4375 9.1875 C-4.80373674 6.45502652 -4.565926 4.20551098 -4.4375 1.1875 C-3.4375 0.1875 -3.4375 0.1875 0 0 Z " fill="#1E1E1E" transform="translate(534.4375,44.8125)"/>
<path d="M0 0 C0.33 1.32 0.66 2.64 1 4 C0.16855469 4.72316406 0.16855469 4.72316406 -0.6796875 5.4609375 C-1.40414063 6.09257812 -2.12859375 6.72421875 -2.875 7.375 C-3.95394531 8.31472656 -3.95394531 8.31472656 -5.0546875 9.2734375 C-6.4076598 10.47426834 -7.7208345 11.7208345 -9 13 C5.85 13.33 20.7 13.66 36 14 C36 14.33 36 14.66 36 15 C20.49 15 4.98 15 -11 15 C-9.88947837 10.55791348 -8.57337675 9.10470896 -5.5 5.8125 C-4.6853125 4.93207031 -3.870625 4.05164063 -3.03125 3.14453125 C-1 1 -1 1 0 0 Z " fill="#EBEBEB" transform="translate(428,228)"/>
<path d="M0 0 C0 1.32 0 2.64 0 4 C-4.54168854 5.74841077 -8.3906007 6.29699128 -13.25 6.3125 C-15.08304687 6.33763672 -15.08304687 6.33763672 -16.953125 6.36328125 C-18.46132813 6.18345703 -18.46132813 6.18345703 -20 6 C-20.66 5.01 -21.32 4.02 -22 3 C-19.69 3.33 -17.38 3.66 -15 4 C-15 3.34 -15 2.68 -15 2 C-12.03 2 -9.06 2 -6 2 C-6 1.34 -6 0.68 -6 0 C-3 -1 -3 -1 0 0 Z " fill="#282828" transform="translate(393,117)"/>
<path d="M0 0 C7.13390866 -1.01770445 13.69767255 -0.51757811 20 3 C19.34 4.32 18.68 5.64 18 7 C17.113125 6.525625 16.22625 6.05125 15.3125 5.5625 C9.84308334 3.1668051 3.88433663 3.25661017 -2 3 C-1.34 2.01 -0.68 1.02 0 0 Z " fill="#0A0A0A" transform="translate(483,67)"/>
<path d="M0 0 C0.99 0.33 1.98 0.66 3 1 C3 6.61 3 12.22 3 18 C2.34 18 1.68 18 1 18 C0.67 18.66 0.34 19.32 0 20 C-0.81862159 16.4201548 -1.13520898 13.10762899 -1.125 9.4375 C-1.12757813 8.50808594 -1.13015625 7.57867187 -1.1328125 6.62109375 C-1.01309964 4.25852524 -0.66993233 2.25969237 0 0 Z " fill="#030303" transform="translate(466,86)"/>
<path d="M0 0 C0.99 0.33 1.98 0.66 3 1 C3 1.99 3 2.98 3 4 C-3.34823202 6.30844801 -9.29481414 6.19818283 -16 6 C-16 5.01 -16 4.02 -16 3 C-14.39318359 2.80083984 -14.39318359 2.80083984 -12.75390625 2.59765625 C-11.35674231 2.4194944 -9.95960841 2.24109681 -8.5625 2.0625 C-7.85544922 1.97548828 -7.14839844 1.88847656 -6.41992188 1.79882812 C-2.91182032 1.61783809 -2.91182032 1.61783809 0 0 Z " fill="#0C0C0C" transform="translate(334,117)"/>
<path d="M0 0 C0.66 0.33 1.32 0.66 2 1 C-2.50817686 6.76044821 -2.50817686 6.76044821 -4.8125 7.8828125 C-7.90458099 9.46198244 -10.18750109 11.66799041 -12.75 14 C-13.50990234 14.67675781 -13.50990234 14.67675781 -14.28515625 15.3671875 C-15.56545817 16.53360812 -16.78791729 17.76283971 -18 19 C-18 19.66 -18 20.32 -18 21 C-19.32 20.34 -20.64 19.68 -22 19 C-15.34662373 11.78873194 -7.76955689 5.93629066 0 0 Z " fill="#CCCCCC" transform="translate(356,481)"/>
<path d="M0 0 C0.08107583 1.93681161 0.13922475 3.8745934 0.1875 5.8125 C0.22230469 6.89144531 0.25710938 7.97039062 0.29296875 9.08203125 C0 12 0 12 -1.51171875 13.88671875 C-2.00285156 14.25410156 -2.49398438 14.62148437 -3 15 C-5.50063147 12.49936853 -5.32420142 11.52188302 -5.375 8.0625 C-5.40335937 7.18722656 -5.43171875 6.31195313 -5.4609375 5.41015625 C-5 3 -5 3 -3.0390625 1.18359375 C-1 0 -1 0 0 0 Z " fill="#080808" transform="translate(304,57)"/>
<path d="M0 0 C2.64 0.66 5.28 1.32 8 2 C8 2.66 8 3.32 8 4 C9.8253125 3.87625 9.8253125 3.87625 11.6875 3.75 C18.13941767 3.70877369 23.96505217 5.91062084 30 8 C25.27639014 9.47283901 21.41837716 8.3311793 16.6875 7.3125 C15.85798828 7.15072266 15.02847656 6.98894531 14.17382812 6.82226562 C8.75955875 5.68129489 4.66051208 3.98750774 0 1 C0 0.67 0 0.34 0 0 Z " fill="#939393" transform="translate(391,752)"/>
<path d="M0 0 C-6.95857216 3.72202697 -13.14968098 4.7512267 -21 4 C-24.625 2.5 -24.625 2.5 -27 1 C-23.36226064 -0.25921747 -20.75009748 0.37498375 -17 1 C-10.75704242 1.54058775 -10.75704242 1.54058775 -4.8828125 -0.07421875 C-3 -1 -3 -1 0 0 Z " fill="#6A6A6A" transform="translate(435,120)"/>
<path d="M0 0 C0 0.33 0 0.66 0 1 C-0.6297876 1.11069824 -1.2595752 1.22139648 -1.90844727 1.33544922 C-4.79381675 1.84483474 -7.67815036 2.35987233 -10.5625 2.875 C-11.55314453 3.04902344 -12.54378906 3.22304688 -13.56445312 3.40234375 C-17.78939744 4.16030718 -21.94933566 4.91666623 -26.0625 6.15625 C-28.960821 6.98874646 -30.24236842 7.10305263 -33 6 C-29.535 5.505 -29.535 5.505 -26 5 C-26 4.34 -26 3.68 -26 3 C-22.98017116 2.49317558 -19.95937183 1.99436665 -16.9375 1.5 C-16.08994141 1.35691406 -15.24238281 1.21382813 -14.36914062 1.06640625 C-9.50727611 0.27799579 -4.92471814 -0.16037074 0 0 Z " fill="#6C6C6C" transform="translate(436,452)"/>
<path d="M0 0 C0.763125 0.495 1.52625 0.99 2.3125 1.5 C1.3225 1.995 1.3225 1.995 0.3125 2.5 C-0.6775 2.17 -1.6675 1.84 -2.6875 1.5 C-4.09574893 1.41978001 -5.50747231 1.39234023 -6.91796875 1.40234375 C-8.12163086 1.40717773 -8.12163086 1.40717773 -9.34960938 1.41210938 C-10.18298828 1.42048828 -11.01636719 1.42886719 -11.875 1.4375 C-13.1424707 1.44426758 -13.1424707 1.44426758 -14.43554688 1.45117188 C-16.51956155 1.46294597 -18.60353977 1.4808811 -20.6875 1.5 C-20.6875 1.17 -20.6875 0.84 -20.6875 0.5 C-14.00860897 -2.3881691 -6.72954619 -2.73744252 0 0 Z " fill="#BFBFBF" transform="translate(333.6875,42.5)"/>
<path d="M0 0 C0 1.32 0 2.64 0 4 C-3.79568461 4.97798721 -6.5005999 4.92653069 -10.3125 4.0625 C-11.19550781 3.86785156 -12.07851563 3.67320313 -12.98828125 3.47265625 C-13.98408203 3.23869141 -13.98408203 3.23869141 -15 3 C-15 2.67 -15 2.34 -15 2 C-12.03 2 -9.06 2 -6 2 C-6 1.34 -6 0.68 -6 0 C-3 -1 -3 -1 0 0 Z " fill="#303030" transform="translate(393,117)"/>
<path d="M0 0 C0.66 0.33 1.32 0.66 2 1 C0.98679687 1.58007812 0.98679687 1.58007812 -0.046875 2.171875 C-1.38492187 2.95304687 -1.38492187 2.95304687 -2.75 3.75 C-3.63171875 4.26046875 -4.5134375 4.7709375 -5.421875 5.296875 C-7.96537343 6.97712548 -9.92902925 8.77419032 -12 11 C-13.32 10.34 -14.64 9.68 -16 9 C-10.86281509 5.40047588 -5.95303969 2.0653403 0 0 Z " fill="#B8B8B8" transform="translate(380,467)"/>
<path d="M0 0 C0.66 0.99 1.32 1.98 2 3 C-2.33333333 7.33333333 -6.66666667 11.66666667 -11 16 C-11 11.90550719 -9.39563083 10.93669388 -6.625 8 C-4.17025826 5.38160881 -1.99346232 2.99019347 0 0 Z " fill="#2D2D2D" transform="translate(406,228)"/>
<path d="M0 0 C-2.33214148 1.20628008 -4.49642139 2.1654738 -7 3 C-7.33 3.66 -7.66 4.32 -8 5 C-11.37705625 4.46274105 -14.696686 3.88935377 -18 3 C-12.30979306 -0.2828117 -6.37621985 -0.10993482 0 0 Z " fill="#646464" transform="translate(402,363)"/>
<path d="M0 0 C3.83489078 3.83489078 3.18325114 8.40987107 3.1875 13.5 C3.19974609 14.27214844 3.21199219 15.04429687 3.22460938 15.83984375 C3.23476991 19.7482648 3.21572048 21.67641928 1 25 C1.01047363 24.44538086 1.02094727 23.89076172 1.03173828 23.31933594 C1.07342004 20.79627041 1.09936438 18.27327747 1.125 15.75 C1.14175781 14.87730469 1.15851563 14.00460937 1.17578125 13.10546875 C1.18222656 12.26113281 1.18867188 11.41679688 1.1953125 10.546875 C1.20578613 9.77182617 1.21625977 8.99677734 1.22705078 8.19824219 C0.97352706 5.74369639 0.09722832 4.18287639 -1 2 C-0.67 1.34 -0.34 0.68 0 0 Z " fill="#C4C4C4" transform="translate(332,737)"/>
<path d="M0 0 C0.33 1.32 0.66 2.64 1 4 C-0.24517965 5.13033298 -1.49636652 6.25405036 -2.75 7.375 C-3.44609375 8.00148437 -4.1421875 8.62796875 -4.859375 9.2734375 C-6.84508688 10.87505183 -8.67954093 11.96520068 -11 13 C-7.61227103 8.30840284 -4.21814817 3.9700218 0 0 Z " fill="#D4D4D4" transform="translate(428,228)"/>
<path d="M0 0 C0.33 0.66 0.66 1.32 1 2 C-2.47393261 7.53255935 -5.93464822 12.17292925 -12 15 C-8.19695186 9.80789528 -4.23841458 4.84390238 0 0 Z " fill="#2D2D2D" transform="translate(257,443)"/>
<path d="M0 0 C-1 2 -1 2 -2.734375 2.62109375 C-5.28144284 3.04706889 -7.66856169 3.09646629 -10.25 3.0625 C-11.14203125 3.05347656 -12.0340625 3.04445313 -12.953125 3.03515625 C-13.62859375 3.02355469 -14.3040625 3.01195313 -15 3 C-15.33 2.34 -15.66 1.68 -16 1 C-10.65097076 0.40801257 -5.39115154 -0.14187241 0 0 Z " fill="#9A9A9A" transform="translate(430,116)"/>
<path d="M0 0 C-3.52679099 2.35119399 -5.02879485 2.21443452 -9.1875 2.125 C-10.27417969 2.10695313 -11.36085938 2.08890625 -12.48046875 2.0703125 C-13.72763672 2.03550781 -13.72763672 2.03550781 -15 2 C-15.33 1.34 -15.66 0.68 -16 0 C-14.08416353 -0.1958009 -12.16727461 -0.38132214 -10.25 -0.5625 C-8.64898437 -0.71912109 -8.64898437 -0.71912109 -7.015625 -0.87890625 C-4.35858796 -0.98560074 -2.50039428 -0.81930395 0 0 Z " fill="#B4B4B4" transform="translate(496,117)"/>
<path d="M0 0 C2.16874252 0.50603992 3.99967627 0.99983813 6 2 C6 3.98 6 5.96 6 8 C7.32 8.33 8.64 8.66 10 9 C8.35 9 6.7 9 5 9 C5 7.02 5 5.04 5 3 C4.34 3 3.68 3 3 3 C3 3.66 3 4.32 3 5 C1.68 5.33 0.36 5.66 -1 6 C-0.67 4.02 -0.34 2.04 0 0 Z " fill="#313131" transform="translate(436,113)"/>
<path d="M0 0 C2.97 0 5.94 0 9 0 C9 1.32 9 2.64 9 4 C6.03 4 3.06 4 0 4 C0 2.68 0 1.36 0 0 Z " fill="#1F1F1F" transform="translate(358,68)"/>
<path d="M0 0 C0.66 0.33 1.32 0.66 2 1 C0.39801112 2.46072532 -1.20667116 3.91849716 -2.8125 5.375 C-3.70582031 6.18710938 -4.59914063 6.99921875 -5.51953125 7.8359375 C-8 10 -8 10 -11 12 C-9.4722133 8.56247993 -7.49818944 5.81046312 -5 3 C-4.34 3 -3.68 3 -3 3 C-3 2.34 -3 1.68 -3 1 C-2.01 0.67 -1.02 0.34 0 0 Z " fill="#3B3B3B" transform="translate(407,147)"/>
<path d="M0 0 C-1.36157378 5.29500913 -4.60343955 7.23745533 -9 10 C-7.6834994 5.81113445 -4.97532335 0 0 0 Z " fill="#2F2F2F" transform="translate(541,150)"/>
<path d="M0 0 C0 3.60122522 -1.17797949 5.02873556 -3.48828125 7.703125 C-5.79204004 9.67947621 -8.04101995 9.86237302 -11 10 C-7.50640535 6.40365256 -3.88901869 3.16548033 0 0 Z " fill="#CBCBCB" transform="translate(621,794)"/>
<path d="M0 0 C0.33 0.66 0.66 1.32 1 2 C-0.97764782 6.06516496 -3.7373124 8.91367389 -7 12 C-7.66 11.67 -8.32 11.34 -9 11 C-6.03 7.37 -3.06 3.74 0 0 Z " fill="#D2D2D2" transform="translate(452,200)"/>
<path d="M0 0 C0.99 0.33 1.98 0.66 3 1 C-1.75 6.875 -1.75 6.875 -4 8 C-4.66 7.34 -5.32 6.68 -6 6 C-4.02 4.02 -2.04 2.04 0 0 Z " fill="#D6D6D6" transform="translate(340,494)"/>
<path d="M0 0 C1.16306443 3.54950034 0.92365049 6.55823948 0.5625 10.25 C0.40974609 11.86648437 0.40974609 11.86648437 0.25390625 13.515625 C0.17011719 14.33546875 0.08632813 15.1553125 0 16 C-0.33 16 -0.66 16 -1 16 C-1 12.37 -1 8.74 -1 5 C-1.66 5 -2.32 5 -3 5 C-2.625 3.0625 -2.625 3.0625 -2 1 C-1.34 0.67 -0.68 0.34 0 0 Z " fill="#010101" transform="translate(558,84)"/>
<path d="M0 0 C0.33 0 0.66 0 1 0 C1.3125 2.6875 1.3125 2.6875 1 6 C-1.5 8.875 -1.5 8.875 -4 11 C-3.52269162 9.5410574 -3.04308958 8.08286504 -2.5625 6.625 C-2.29566406 5.81289063 -2.02882813 5.00078125 -1.75390625 4.1640625 C-1 2 -1 2 0 0 Z " fill="#C3C3C3" transform="translate(686,706)"/>
<path d="M0 0 C0.53625 0.2475 1.0725 0.495 1.625 0.75 C1.026875 1.018125 0.42875 1.28625 -0.1875 1.5625 C-2.34724808 2.73493467 -3.73290256 3.94369282 -5.375 5.75 C-6.365 5.09 -7.355 4.43 -8.375 3.75 C-2.95961538 -0.31153846 -2.95961538 -0.31153846 0 0 Z " fill="#DFDFDF" transform="translate(421.375,158.25)"/>
<path d="M0 0 C0.66 0.33 1.32 0.66 2 1 C0.16536528 3.53354319 -1.63248912 5.94129488 -4 8 C-4.66 8 -5.32 8 -6 8 C-4.55746343 4.63408134 -2.66735273 2.48952921 0 0 Z " fill="#C4C4C4" transform="translate(283,726)"/>
<path d="M0 0 C0.66 0.99 1.32 1.98 2 3 C-0.31 4.98 -2.62 6.96 -5 9 C-3.44455189 5.88910379 -1.80979645 2.96148509 0 0 Z " fill="#363636" transform="translate(587,689)"/>
<path d="M0 0 C0.66 0.99 1.32 1.98 2 3 C0.02 4.32 -1.96 5.64 -4 7 C-4.66 6.34 -5.32 5.68 -6 5 C-5.195625 4.731875 -4.39125 4.46375 -3.5625 4.1875 C-2.716875 3.795625 -1.87125 3.40375 -1 3 C-0.67 2.01 -0.34 1.02 0 0 Z " fill="#D3D3D3" transform="translate(597,115)"/>
</svg>
