<?xml version="1.0" encoding="UTF-8"?>
<svg version="1.1" xmlns="http://www.w3.org/2000/svg" width="225" height="225">
<path d="M0 0 C74.25 0 148.5 0 225 0 C225 74.25 225 148.5 225 225 C150.75 225 76.5 225 0 225 C0 150.75 0 76.5 0 0 Z " fill="#FDFDFD" transform="translate(0,0)"/>
<path d="M0 0 C74.25 0 148.5 0 225 0 C225 74.25 225 148.5 225 225 C150.75 225 76.5 225 0 225 C0 150.75 0 76.5 0 0 Z M82 15 C81.0085498 15.3700415 81.0085498 15.3700415 79.99707031 15.74755859 C66.12933344 21.04304462 54.72380221 28.71309344 44 39 C43.113125 39.845625 42.22625 40.69125 41.3125 41.5625 C40.549375 42.366875 39.78625 43.17125 39 44 C38.49339844 44.51175781 37.98679687 45.02351563 37.46484375 45.55078125 C18.67387672 65.54026098 12.15463844 93.56404282 12.859375 120.22070312 C13.18486797 126.65371004 14.43077921 132.75708265 16 139 C16.26683594 140.09183594 16.53367187 141.18367187 16.80859375 142.30859375 C23.33216153 165.99639321 38.78315172 186.31264731 59 200 C59.80953125 200.55300781 60.6190625 201.10601562 61.453125 201.67578125 C83.12546672 215.56186775 110.04736246 219.53505024 135.03125 214.1015625 C162.01907231 207.00164748 184.87697777 190.18772076 199.29296875 166.25390625 C212.53222004 143.29203656 217.32383571 114.38872123 211.03125 88.4609375 C203.03241293 61.61635552 188.17799045 38.31358484 163.5078125 23.87890625 C138.80920255 10.64947263 109.03631835 4.83890031 82 15 Z " fill="#010101" transform="translate(0,0)"/>
<path d="M0 0 C7.72901038 4.50740448 15.16398445 9.38450546 22.58276367 14.37768555 C30.44931263 19.65727527 38.34210195 24.89794652 46.23042297 30.14492798 C49.04780892 32.01912141 51.86463829 33.89415039 54.68139648 35.76928711 C56.11081368 36.72053977 57.54050455 37.67138129 58.97045898 38.62182617 C63.05594015 41.33760309 67.13701166 44.05969155 71.20855713 46.79632568 C72.88253481 47.92107489 74.55909189 49.04198249 76.23583984 50.16259766 C77.15187988 50.78569824 78.06791992 51.40879883 79.01171875 52.05078125 C79.79377686 52.57969971 80.57583496 53.10861816 81.3815918 53.65356445 C81.9156665 54.09788818 82.44974121 54.54221191 83 55 C83 55.66 83 56.32 83 57 C68.70780169 69.42207312 50.38913911 77.35512024 32 81 C31.08347656 81.19078125 30.16695313 81.3815625 29.22265625 81.578125 C5.66005233 84.66268406 -19.76227843 79.61439948 -39 65 C-40.76171875 62.82421875 -40.76171875 62.82421875 -42 61 C-40.91847656 61.2165625 -39.83695313 61.433125 -38.72265625 61.65625 C-13.03772773 66.44554324 18.00326201 65.99836899 42 54 C41.28457031 53.52691406 40.56914062 53.05382812 39.83203125 52.56640625 C30.80016055 46.5724222 30.80016055 46.5724222 26.4140625 43.5 C25.83293701 43.09322021 25.25181152 42.68644043 24.65307617 42.26733398 C23.00478506 41.1097537 21.35974278 39.94755157 19.71484375 38.78515625 C17.07336784 36.88167815 17.07336784 36.88167815 14 36 C12.62076369 41.70084343 11.68842455 47.18165085 11.24609375 53.03125 C11 55 11 55 10 56 C8.37742456 56.0991657 6.75060169 56.13079777 5.125 56.1328125 C4.14015625 56.13410156 3.1553125 56.13539062 2.140625 56.13671875 C1.10421875 56.13285156 0.0678125 56.12898438 -1 56.125 C-2.55460937 56.13080078 -2.55460937 56.13080078 -4.140625 56.13671875 C-5.12546875 56.13542969 -6.1103125 56.13414063 -7.125 56.1328125 C-8.03507812 56.13168457 -8.94515625 56.13055664 -9.8828125 56.12939453 C-12 56 -12 56 -13 55 C-15.15825719 35.88400773 -7.43471363 17.17547987 0 0 Z " fill="#AF2506" transform="translate(98,41)"/>
<path d="M0 0 C2.39674267 0.11456128 4.79181218 0.24128719 7.1875 0.375 C8.19780273 0.42140625 8.19780273 0.42140625 9.22851562 0.46875 C13.19678975 0.70103922 16.40729879 1.28387476 20 3 C20.05945801 3.59723877 20.11891602 4.19447754 20.18017578 4.80981445 C21.95327018 21.88605231 25.39110222 37.57073397 32.43359375 53.28515625 C33 55 33 55 32 57 C13.983544 42.57901895 2.94559977 22.79771487 0 0 Z " fill="#1C2022" transform="translate(86,128)"/>
<path d="M0 0 C3.8032723 0.63686871 6.34760414 2.39734639 9.5 4.5625 C10.54800781 5.27792969 11.59601563 5.99335937 12.67578125 6.73046875 C13.21928223 7.10349121 13.7627832 7.47651367 14.32275391 7.86083984 C16.0090744 9.0061632 17.70984684 10.125777 19.41796875 11.23828125 C20.49691406 11.94339844 21.57585937 12.64851563 22.6875 13.375 C23.68136719 14.02210937 24.67523438 14.66921875 25.69921875 15.3359375 C28 17 28 17 29 19 C25.87647773 20.00465729 22.75095147 21.00292927 19.625 22 C18.73554688 22.28617188 17.84609375 22.57234375 16.9296875 22.8671875 C16.07890625 23.13789062 15.228125 23.40859375 14.3515625 23.6875 C13.56604004 23.93886719 12.78051758 24.19023438 11.97119141 24.44921875 C10 25 10 25 8 25 C8 24.34 8 23.68 8 23 C5.03 23.33 2.06 23.66 -1 24 C-1.33 23.01 -1.66 22.02 -2 21 C-2.33 21.66 -2.66 22.32 -3 23 C-10.59 23 -18.18 23 -26 23 C-26 22.01 -26 21.02 -26 20 C-18.74 19.67 -11.48 19.34 -4 19 C-3.566875 15.6896875 -3.566875 15.6896875 -3.125 12.3125 C-2.54646296 7.89082406 -1.85154567 4.06873272 0 0 Z " fill="#FBFCFB" transform="translate(112,77)"/>
<path d="M0 0 C1.35301751 2.61071622 2.49596939 5.19604639 3.47265625 7.96875 C3.86227539 9.07283203 3.86227539 9.07283203 4.25976562 10.19921875 C4.52466797 10.95847656 4.78957031 11.71773437 5.0625 12.5 C5.33126953 13.25925781 5.60003906 14.01851562 5.87695312 14.80078125 C7.06416903 18.18183004 8.17094347 21.5106688 9 25 C3.32362005 21.10762517 -2.31297454 16.92051204 -6 11 C-6.07757223 6.88867192 -5.27909677 5.41864516 -3 2 C-2.01 2 -1.02 2 0 2 C0 1.34 0 0.68 0 0 Z " fill="#1E1E22" transform="translate(110,160)"/>
<path d="M0 0 C3.26954202 0.56371414 4.82575883 1.49962266 7 4 C5.02 4 3.04 4 1 4 C0.79503906 5.12019531 0.59007813 6.24039063 0.37890625 7.39453125 C0.10688311 8.86720824 -0.16525849 10.33986336 -0.4375 11.8125 C-0.57220703 12.55048828 -0.70691406 13.28847656 -0.84570312 14.04882812 C-1.41419737 17.11315076 -2.01309651 20.03928953 -3 23 C-10.59 23 -18.18 23 -26 23 C-26 22.01 -26 21.02 -26 20 C-18.74 19.67 -11.48 19.34 -4 19 C-3.566875 15.6896875 -3.566875 15.6896875 -3.125 12.3125 C-2.54646296 7.89082406 -1.85154567 4.06873272 0 0 Z " fill="#F9E6DC" transform="translate(112,77)"/>
<path d="M0 0 C4.60273973 0.76712329 4.60273973 0.76712329 6.8125 2.0625 C12.41023221 4.46152809 17.54454385 2.8598146 23 1 C25.375 1.375 25.375 1.375 27 2 C27.04241723 4.33294775 27.04092937 6.66702567 27 9 C26.67 9.33 26.34 9.66 26 10 C19.90951868 9.61682402 15.13618523 8.10095399 9.625 5.5625 C8.91472656 5.24990234 8.20445313 4.93730469 7.47265625 4.61523438 C4.58665371 3.32009282 2.25503057 2.25503057 0 0 Z " fill="#AE2408" transform="translate(67,110)"/>
<path d="M0 0 C6.10148561 3.83087038 12.1407132 7.73937246 18.125 11.75 C26.35365493 17.26442375 34.67150906 22.63796055 43 28 C42.34 28.66 41.68 29.32 41 30 C38.5 29.875 38.5 29.875 36 29 C34.6875 26.9375 34.6875 26.9375 34 25 C33.34 25 32.68 25 32 25 C32 24.34 32 23.68 32 23 C29.34771188 21.92474806 26.71631546 20.90543849 24 20 C24 19.01 24 18.02 24 17 C22.02 16.34 20.04 15.68 18 15 C18 14.34 18 13.68 18 13 C16.9275 12.7525 15.855 12.505 14.75 12.25 C10.90669323 10.96889774 9.68114697 9.86605366 7 7 C6.319375 6.835 5.63875 6.67 4.9375 6.5 C2.19827519 5.79310327 1.43153435 4.36203169 0 2 C0 1.34 0 0.68 0 0 Z " fill="#97341D" transform="translate(121,56)"/>
<path d="M0 0 C1.65 0 3.3 0 5 0 C-9.71909225 12.31962952 -33.06858911 11.45570509 -51 11 C-51 10.67 -51 10.34 -51 10 C-50.21874756 9.9498877 -49.43749512 9.89977539 -48.63256836 9.84814453 C-45.06698059 9.61496826 -41.50228781 9.37009059 -37.9375 9.125 C-36.70837891 9.04636719 -35.47925781 8.96773437 -34.21289062 8.88671875 C-25.42539553 8.32949887 -25.42539553 8.32949887 -17 6 C-16.67 5.34 -16.34 4.68 -16 4 C-15.43410156 4.19464844 -14.86820313 4.38929687 -14.28515625 4.58984375 C-11.50127563 5.08951463 -10.06180083 4.5615993 -7.4375 3.5625 C-4.6561954 2.51657938 -3.01533355 2 0 2 C0 1.34 0 0.68 0 0 Z " fill="#963323" transform="translate(152,112)"/>
<path d="M0 0 C0.66 0.33 1.32 0.66 2 1 C-0.86698342 4.49413605 -2.84150148 6.28836874 -7.3125 6.8125 C-9.1378125 6.9053125 -9.1378125 6.9053125 -11 7 C-11 7.66 -11 8.32 -11 9 C-29.20439739 16.12947883 -29.20439739 16.12947883 -39 14 C-39 13.67 -39 13.34 -39 13 C-38.07960938 12.84144531 -37.15921875 12.68289062 -36.2109375 12.51953125 C-24.05726176 10.27939346 -12.77003034 6.8364075 -1.890625 0.8203125 C-1.26671875 0.54960938 -0.6428125 0.27890625 0 0 Z " fill="#F7DFD4" transform="translate(163,109)"/>
<path d="M0 0 C4.82360189 -0.19294408 8.49646738 0.24252386 13 2 C13 3.65 13 5.3 13 7 C13.61875 7.28875 14.2375 7.5775 14.875 7.875 C17.21805516 9.11544097 18.67746792 10.66402908 20.5 12.5625 C21.95935935 14.10300302 21.95935935 14.10300302 24 15 C23.67 15.66 23.34 16.32 23 17 C20.47734756 15.44037694 17.95687678 13.87739923 15.4375 12.3125 C14.73302734 11.87744141 14.02855469 11.44238281 13.30273438 10.99414062 C8.74074665 8.15603766 4.25651385 5.28327678 0 2 C0 1.34 0 0.68 0 0 Z " fill="#F5EBE5" transform="translate(123,56)"/>
<path d="M0 0 C1.75129657 1.10210905 3.50098464 2.20677432 5.25 3.3125 C6.22453125 3.92738281 7.1990625 4.54226562 8.203125 5.17578125 C13.02259887 8.31920904 13.02259887 8.31920904 15 10 C15 10.66 15 11.32 15 12 C13.34765625 13.32861328 13.34765625 13.32861328 11.0625 14.8203125 C10.25039062 15.35527344 9.43828125 15.89023438 8.6015625 16.44140625 C7.74304688 16.99699219 6.88453125 17.55257812 6 18.125 C5.14148438 18.68832031 4.28296875 19.25164062 3.3984375 19.83203125 C1.26960002 21.22760249 -0.86326974 22.61655555 -3 24 C-3.33 23.01 -3.66 22.02 -4 21 C-3.34 21 -2.68 21 -2 21 C-2 20.34 -2 19.68 -2 19 C0.65228812 17.92474806 3.28368454 16.90543849 6 16 C6 15.34 6 14.68 6 14 C7.65 13.34 9.3 12.68 11 12 C10.67 10.68 10.34 9.36 10 8 C8.68 8 7.36 8 6 8 C6 7.01 6 6.02 6 5 C5.195625 4.731875 4.39125 4.46375 3.5625 4.1875 C2.716875 3.795625 1.87125 3.40375 1 3 C0.67 2.01 0.34 1.02 0 0 Z " fill="#963727" transform="translate(166,86)"/>
<path d="M0 0 C-15.85036997 3.66280902 -32.90312422 4.82721331 -49 2 C-49 1.67 -49 1.34 -49 1 C-48.33097656 1.01232666 -47.66195312 1.02465332 -46.97265625 1.03735352 C-37.18931907 1.13502274 -27.49390989 0.46328892 -17.74169922 -0.22094727 C-15.55728977 -0.37270174 -13.37247665 -0.51683648 -11.1875 -0.66015625 C-9.90230469 -0.74918213 -8.61710937 -0.83820801 -7.29296875 -0.92993164 C-4.54478453 -0.98840798 -2.57610951 -0.86586804 0 0 Z " fill="#FCE6D8" transform="translate(117,103)"/>
<path d="M0 0 C7.52283368 4.39386746 14.78653118 9.11665513 22 14 C21.67 14.66 21.34 15.32 21 16 C17.5625 15.1875 17.5625 15.1875 14 14 C13.67 13.01 13.34 12.02 13 11 C11.35 11.33 9.7 11.66 8 12 C7.67 10.02 7.34 8.04 7 6 C4.03 5.67 1.06 5.34 -2 5 C-1.34 3.35 -0.68 1.7 0 0 Z " fill="#A2311A" transform="translate(98,41)"/>
<path d="M0 0 C1.16273437 0.20496094 2.32546875 0.40992187 3.5234375 0.62109375 C14.69270952 2.52317131 25.6794492 3.60777064 37 4 C37 4.33 37 4.66 37 5 C36.29391602 5.01981934 35.58783203 5.03963867 34.86035156 5.06005859 C31.65653006 5.15540415 28.45335199 5.26504513 25.25 5.375 C24.13882813 5.4059375 23.02765625 5.436875 21.8828125 5.46875 C20.27792969 5.52675781 20.27792969 5.52675781 18.640625 5.5859375 C17.16384277 5.63306885 17.16384277 5.63306885 15.65722656 5.68115234 C12.99147799 6.00102258 11.29383595 6.64368621 9 8 C7.49712782 6.85793642 5.99776716 5.71125043 4.5 4.5625 C3.6646875 3.92441406 2.829375 3.28632812 1.96875 2.62890625 C1.3190625 2.09136719 0.669375 1.55382812 0 1 C0 0.67 0 0.34 0 0 Z " fill="#9C361C" transform="translate(56,102)"/>
<path d="M0 0 C0 0.66 0 1.32 0 2 C-3.99560608 4.83022097 -7.42737323 3.76210446 -12 3 C-12 3.66 -12 4.32 -12 5 C-15.3 5.33 -18.6 5.66 -22 6 C-22 5.34 -22 4.68 -22 4 C-23.32 3.67 -24.64 3.34 -26 3 C-24.83082031 2.79503906 -23.66164063 2.59007813 -22.45703125 2.37890625 C-20.90884878 2.10680145 -19.360672 1.83466433 -17.8125 1.5625 C-17.04357422 1.42779297 -16.27464844 1.29308594 -15.48242188 1.15429688 C-14.73154297 1.02216797 -13.98066406 0.89003906 -13.20703125 0.75390625 C-12.47782471 0.6257251 -11.74861816 0.49754395 -10.99731445 0.36547852 C-9.35701695 0.06532873 -7.72401067 -0.27440631 -6.09375 -0.625 C-3.75065364 -1.04465905 -2.2402134 -0.7467378 0 0 Z " fill="#A9321D" transform="translate(126,102)"/>
<path d="M0 0 C0.99 0.33 1.98 0.66 3 1 C2 4 1 7 0 10 C0 11.32 0 12.64 0 14 C-0.99 14 -1.98 14 -3 14 C-3 17.3 -3 20.6 -3 24 C-3.66 24.33 -4.32 24.66 -5 25 C-5.65555119 27.52733235 -5.65555119 27.52733235 -6 30 C-6.66 29.67 -7.32 29.34 -8 29 C-6.10270155 18.98905129 -3.39665755 9.58582408 0 0 Z " fill="#A13122" transform="translate(94,50)"/>
<path d="M0 0 C2.8125 -0.1875 2.8125 -0.1875 6 0 C7.5625 1.375 7.5625 1.375 9 3 C9.825 3.33 10.65 3.66 11.5 4 C14.01929235 5.00771694 15.24899945 5.97252568 17 8 C16.67 8.66 16.34 9.32 16 10 C15.16855469 9.43410156 14.33710937 8.86820313 13.48046875 8.28515625 C12.39378906 7.55167969 11.30710937 6.81820312 10.1875 6.0625 C9.10855469 5.33160156 8.02960938 4.60070312 6.91796875 3.84765625 C4.10079982 1.90007384 4.10079982 1.90007384 1 1 C-0.53332291 7.33773468 -1.48446121 13.50149789 -2 20 C-4.45391569 16.31912647 -4.22802759 13.55644412 -4.125 9.3125 C-4.11597656 8.61060547 -4.10695313 7.90871094 -4.09765625 7.18554688 C-4.07413704 5.45688475 -4.03826713 3.72839855 -4 2 C-3.01 2.33 -2.02 2.66 -1 3 C-0.67 2.01 -0.34 1.02 0 0 Z " fill="#94311D" transform="translate(111,76)"/>
<path d="M0 0 C0.71800781 0.13277344 1.43601562 0.26554687 2.17578125 0.40234375 C12.09443948 2.09456813 21.95852557 2.59706861 32 3 C32 3.33 32 3.66 32 4 C26.72 4 21.44 4 16 4 C16 5.98 16 7.96 16 10 C11.71 9.67 7.42 9.34 3 9 C3 8.67 3 8.34 3 8 C5.97 8 8.94 8 12 8 C12 7.34 12 6.68 12 6 C12.66 6 13.32 6 14 6 C14 5.34 14 4.68 14 4 C13.175 4.061875 12.35 4.12375 11.5 4.1875 C7.11806304 3.95275338 4.04504918 2.67381346 0 1 C0 0.67 0 0.34 0 0 Z " fill="#FDE0D7" transform="translate(88,120)"/>
<path d="M0 0 C0.99 0 1.98 0 3 0 C2.67 4.29 2.34 8.58 2 13 C8.93 13.33 15.86 13.66 23 14 C23 14.33 23 14.66 23 15 C19.35418313 15.02887512 15.70839537 15.04675585 12.0625 15.0625 C10.50112305 15.07506836 10.50112305 15.07506836 8.90820312 15.08789062 C7.91884766 15.09111328 6.92949219 15.09433594 5.91015625 15.09765625 C4.99371338 15.10289307 4.07727051 15.10812988 3.13305664 15.11352539 C1 15 1 15 0 14 C-0.07271741 11.64686445 -0.08370868 9.29166332 -0.0625 6.9375 C-0.05347656 5.64714844 -0.04445313 4.35679688 -0.03515625 3.02734375 C-0.02355469 2.02832031 -0.01195313 1.02929688 0 0 Z " fill="#922819" transform="translate(85,82)"/>
<path d="M0 0 C0.66 0.33 1.32 0.66 2 1 C-0.31 6.94 -2.62 12.88 -5 19 C-5.33 19 -5.66 19 -6 19 C-5.67 16.69 -5.34 14.38 -5 12 C-5.66 11.67 -6.32 11.34 -7 11 C-6.34 8.69 -5.68 6.38 -5 4 C-4.67 4.66 -4.34 5.32 -4 6 C-1.2160817 4.60804085 -1.02101003 2.84424221 0 0 Z " fill="#F7EDE1" transform="translate(96,42)"/>
<path d="M0 0 C2 0 2 0 3.625 1.5 C4.07875 1.995 4.5325 2.49 5 3 C5.99 2.67 6.98 2.34 8 2 C8.99 5.3 9.98 8.6 11 12 C1.90708556 5.2921123 1.90708556 5.2921123 0 3 C0 2.01 0 1.02 0 0 Z " fill="#2E2E2F" transform="translate(108,173)"/>
<path d="M0 0 C3.46039073 0.44650203 6.24984085 1.52556594 9.375 3 C13.32754768 4.82730848 16.67454826 5.63187645 21 6 C21 6.66 21 7.32 21 8 C21.66 8 22.32 8 23 8 C23 8.66 23 9.32 23 10 C14.88406495 7.91147495 7.52943541 4.64670147 0 1 C0 0.67 0 0.34 0 0 Z " fill="#963824" transform="translate(67,110)"/>
<path d="M0 0 C3.26011642 0.69378511 4.79038253 1.45893991 7 4 C5.02 4 3.04 4 1 4 C-0.485 10.435 -0.485 10.435 -2 17 C-2.33 17 -2.66 17 -3 17 C-3.34548714 10.66606918 -2.29342747 5.89738492 0 0 Z " fill="#F6D5CA" transform="translate(112,77)"/>
<path d="M0 0 C1.125 1.6875 1.125 1.6875 2 4 C1.125 6.75 1.125 6.75 0 9 C-1.98 9 -3.96 9 -6 9 C-5.25 6.0625 -5.25 6.0625 -4 3 C-1.875 2.125 -1.875 2.125 0 2 C0 1.34 0 0.68 0 0 Z " fill="#222529" transform="translate(110,160)"/>
<path d="M0 0 C3.63 1.98 7.26 3.96 11 6 C11 6.66 11 7.32 11 8 C9.35 8.33 7.7 8.66 6 9 C6 8.34 6 7.68 6 7 C3.69 6.34 1.38 5.68 -1 5 C-0.67 3.35 -0.34 1.7 0 0 Z " fill="#FAEEE5" transform="translate(58,105)"/>
<path d="M0 0 C0.99 0 1.98 0 3 0 C3 5.61 3 11.22 3 17 C1.68 16.67 0.36 16.34 -1 16 C-0.67 10.72 -0.34 5.44 0 0 Z " fill="#F8DFD5" transform="translate(83,80)"/>
<path d="M0 0 C2.97 0.33 5.94 0.66 9 1 C6.13367056 3.86632944 2.70683574 4.2315668 -1.125 5.125 C-1.87910156 5.30675781 -2.63320312 5.48851563 -3.41015625 5.67578125 C-5.27191946 6.12354709 -7.13577253 6.56260722 -9 7 C-8.67 6.01 -8.34 5.02 -8 4 C-4.535 3.505 -4.535 3.505 -1 3 C-0.67 2.01 -0.34 1.02 0 0 Z " fill="#F9E7D7" transform="translate(129,95)"/>
<path d="M0 0 C0.33 0 0.66 0 1 0 C0.7834375 1.918125 0.7834375 1.918125 0.5625 3.875 C0.00185355 8.91280884 -0.50501531 13.95536879 -1 19 C-3.45391569 15.31912647 -3.22802759 12.55644412 -3.125 8.3125 C-3.11597656 7.61060547 -3.10695313 6.90871094 -3.09765625 6.18554688 C-3.07413704 4.45688475 -3.03826713 2.72839855 -3 1 C-2.01 1.33 -1.02 1.66 0 2 C0 1.34 0 0.68 0 0 Z " fill="#9A3013" transform="translate(110,77)"/>
<path d="M0 0 C4.66714289 1.83025211 8.18765077 3.6497537 12 7 C11.67 7.99 11.34 8.98 11 10 C7.04 7.36 3.08 4.72 -1 2 C-0.67 1.34 -0.34 0.68 0 0 Z " fill="#FBE6DD" transform="translate(148,72)"/>
<path d="M0 0 C1.32 0.33 2.64 0.66 4 1 C2.23268551 2.3172344 0.46102239 3.62863588 -1.3125 4.9375 C-2.29863281 5.66839844 -3.28476563 6.39929688 -4.30078125 7.15234375 C-7 9 -7 9 -10 10 C-10 9.01 -10 8.02 -10 7 C-9.34 7 -8.68 7 -8 7 C-8 6.34 -8 5.68 -8 5 C-5.34771188 3.92474806 -2.71631546 2.90543849 0 2 C0 1.34 0 0.68 0 0 Z " fill="#963218" transform="translate(172,100)"/>
<path d="M0 0 C2 2 2 2 3 5 C6.00847418 6.22520264 6.00847418 6.22520264 9 7 C8.67 8.32 8.34 9.64 8 11 C3.71 8.03 -0.58 5.06 -5 2 C-4.34 1.67 -3.68 1.34 -3 1 C-2.01 1.33 -1.02 1.66 0 2 C0 1.34 0 0.68 0 0 Z " fill="#F8E1DA" transform="translate(172,85)"/>
<path d="M0 0 C1.62978448 0.92915757 3.25368275 1.86864534 4.875 2.8125 C5.77992187 3.33457031 6.68484375 3.85664062 7.6171875 4.39453125 C10 6 10 6 12 9 C11.01 9.495 11.01 9.495 10 10 C9.60167969 9.52949219 9.20335938 9.05898438 8.79296875 8.57421875 C6.6382607 6.68239447 5.10908118 6.33939211 2.3125 5.8125 C1.10013672 5.57466797 1.10013672 5.57466797 -0.13671875 5.33203125 C-0.75160156 5.22246094 -1.36648437 5.11289062 -2 5 C-1.34 3.35 -0.68 1.7 0 0 Z " fill="#8F351F" transform="translate(98,41)"/>
<path d="M0 0 C3.71888239 0.50712033 6.73454239 1.11608215 10 3 C10 3.66 10 4.32 10 5 C10.99 5.33 11.98 5.66 13 6 C12.67 6.99 12.34 7.98 12 9 C9.997193 7.69161864 7.99773901 6.37857806 6 5.0625 C5.42765625 4.68931641 4.8553125 4.31613281 4.265625 3.93164062 C2.82614271 2.98055411 1.41085511 1.99305724 0 1 C0 0.67 0 0.34 0 0 Z " fill="#F7DDCE" transform="translate(99,41)"/>
<path d="M0 0 C1.76462683 3.08809695 2 4.23312136 2 8 C-0.97 7.67 -3.94 7.34 -7 7 C-5.37660195 5.29115995 -3.70680947 3.62553283 -2 2 C-1.34 2 -0.68 2 0 2 C0 1.34 0 0.68 0 0 Z " fill="#F7EEE2" transform="translate(181,96)"/>
<path d="M0 0 C1.75129657 1.10210905 3.50098464 2.20677432 5.25 3.3125 C6.22453125 3.92738281 7.1990625 4.54226562 8.203125 5.17578125 C10.54733713 6.70475759 12.78784032 8.28820977 15 10 C14.67 10.66 14.34 11.32 14 12 C11 11 11 11 9.0625 9 C7.21142169 6.8665801 7.21142169 6.8665801 4.9375 6.5 C2.19827519 5.79310327 1.43153435 4.36203169 0 2 C0 1.34 0 0.68 0 0 Z " fill="#8D2F19" transform="translate(121,56)"/>
<path d="M0 0 C-0.33 0.99 -0.66 1.98 -1 3 C-2.79133978 3.05391993 -4.58313899 3.09275571 -6.375 3.125 C-7.37273437 3.14820312 -8.37046875 3.17140625 -9.3984375 3.1953125 C-12 3 -12 3 -14 1 C-8.83430559 -0.79217969 -5.48946087 -1.12029814 0 0 Z " fill="#A83520" transform="translate(139,99)"/>
<path d="M0 0 C5.94 0.99 5.94 0.99 12 2 C10.68 2.33 9.36 2.66 8 3 C7.67 3.99 7.34 4.98 7 6 C1.125 2.25 1.125 2.25 0 0 Z " fill="#954038" transform="translate(56,102)"/>
<path d="M0 0 C1.79646436 0.92827339 3.58703557 1.86795838 5.375 2.8125 C6.37273437 3.33457031 7.37046875 3.85664062 8.3984375 4.39453125 C11 6 11 6 13 9 C9.62537285 8.45276317 7.91765 7.9451 5 6 C5 5.34 5 4.68 5 4 C4.01 4 3.02 4 2 4 C2 3.34 2 2.68 2 2 C1.34 2 0.68 2 0 2 C0 1.34 0 0.68 0 0 Z " fill="#F9E1D5" transform="translate(128,87)"/>
<path d="M0 0 C0.99 0.33 1.98 0.66 3 1 C3 1.99 3 2.98 3 4 C2.34 4 1.68 4 1 4 C1 5.32 1 6.64 1 8 C-3.875 6.25 -3.875 6.25 -5 4 C-3.68 4.33 -2.36 4.66 -1 5 C-0.67 3.35 -0.34 1.7 0 0 Z " fill="#A63517" transform="translate(133,82)"/>
<path d="M0 0 C5.43400211 0.35058078 5.43400211 0.35058078 8 1 C9.25 2.9375 9.25 2.9375 10 5 C12.0335948 6.26804566 12.0335948 6.26804566 14 7 C13.67 7.66 13.34 8.32 13 9 C10.83061859 7.69181533 8.6644848 6.37874076 6.5 5.0625 C5.87996094 4.68931641 5.25992188 4.31613281 4.62109375 3.93164062 C3.06370003 2.9818016 1.5296725 1.99386689 0 1 C0 0.67 0 0.34 0 0 Z " fill="#F6DACA" transform="translate(133,64)"/>
<path d="M0 0 C2 2 2 2 2 6 C-2.29 5.67 -6.58 5.34 -11 5 C-11 4.67 -11 4.34 -11 4 C-8.03 4 -5.06 4 -2 4 C-2 3.34 -2 2.68 -2 2 C-1.34 2 -0.68 2 0 2 C0 1.34 0 0.68 0 0 Z " fill="#E0E1E4" transform="translate(102,124)"/>
<path d="M0 0 C1.7936743 1.1217963 3.5848773 2.24754483 5.375 3.375 C6.37273437 4.00148438 7.37046875 4.62796875 8.3984375 5.2734375 C11 7 11 7 13 9 C11.68 9.33 10.36 9.66 9 10 C9 9.01 9 8.02 9 7 C7.02 6.34 5.04 5.68 3 5 C3 4.34 3 3.68 3 3 C2.01 2.67 1.02 2.34 0 2 C0 1.34 0 0.68 0 0 Z " fill="#993526" transform="translate(136,66)"/>
<path d="M0 0 C2.475 0.495 2.475 0.495 5 1 C5 2.65 5 4.3 5 6 C4.01 6.33 3.02 6.66 2 7 C1.34 4.69 0.68 2.38 0 0 Z " fill="#212528" transform="translate(88,139)"/>
<path d="M0 0 C2.5 1.1875 2.5 1.1875 4.5 3.1875 C1.98910624 4.08424777 0.85464891 4.31922674 -1.6875 3.375 C-3.5 2.1875 -3.5 2.1875 -4.5 0.1875 C-2.5 -0.8125 -2.5 -0.8125 0 0 Z " fill="#9C2E12" transform="translate(159.5,81.8125)"/>
<path d="M0 0 C0.66 0.33 1.32 0.66 2 1 C2.625 3.5625 2.625 3.5625 3 6 C2.01 6.495 2.01 6.495 1 7 C0.34444881 9.52733235 0.34444881 9.52733235 0 12 C-0.66 11.67 -1.32 11.34 -2 11 C-1.34 7.37 -0.68 3.74 0 0 Z " fill="#9A3727" transform="translate(88,68)"/>
<path d="M0 0 C4.95 1.98 4.95 1.98 10 4 C10 4.33 10 4.66 10 5 C8.35333797 4.8864371 6.70763918 4.75882619 5.0625 4.625 C3.68771484 4.52058594 3.68771484 4.52058594 2.28515625 4.4140625 C1.15400391 4.20910156 1.15400391 4.20910156 0 4 C-0.33 3.34 -0.66 2.68 -1 2 C-0.67 1.34 -0.34 0.68 0 0 Z " fill="#FBE3DB" transform="translate(70,112)"/>
<path d="M0 0 C2.64 1.65 5.28 3.3 8 5 C6.02 5.99 6.02 5.99 4 7 C3.67 6.34 3.34 5.68 3 5 C0.98330173 3.86649466 0.98330173 3.86649466 -1 3 C-0.67 2.01 -0.34 1.02 0 0 Z " fill="#F9DED5" transform="translate(120,81)"/>
<path d="M0 0 C-1.1875 1.5 -1.1875 1.5 -3 3 C-5.6875 3.1875 -5.6875 3.1875 -8 3 C-7.67 2.01 -7.34 1.02 -7 0 C-4.3333581 -1.33332095 -2.83319697 -0.67102033 0 0 Z " fill="#A3290D" transform="translate(162,109)"/>
<path d="M0 0 C0.66 0.33 1.32 0.66 2 1 C-2.75 5.875 -2.75 5.875 -5 7 C-5.66 6.34 -6.32 5.68 -7 5 C-4.69 3.35 -2.38 1.7 0 0 Z " fill="#F5DDD1" transform="translate(172,103)"/>
<path d="M0 0 C0 0.66 0 1.32 0 2 C-4.43076923 4.09230769 -4.43076923 4.09230769 -7.3125 3.625 C-7.869375 3.41875 -8.42625 3.2125 -9 3 C-5.92807025 0.26939578 -4.09590633 -0.34132553 0 0 Z " fill="#B81F0B" transform="translate(128,104)"/>
<path d="M0 0 C2.4375 0.375 2.4375 0.375 5 1 C6.35439668 3.70879335 6.06501451 6.00933268 6 9 C5.67 9 5.34 9 5 9 C4.67 7.35 4.34 5.7 4 4 C2.68 3.67 1.36 3.34 0 3 C0 2.01 0 1.02 0 0 Z " fill="#14191C" transform="translate(88,136)"/>
<path d="M0 0 C1.875 0.3125 1.875 0.3125 4 1 C4.66 1.99 5.32 2.98 6 4 C5.34 4.66 4.68 5.32 4 6 C3.34 5.34 2.68 4.68 2 4 C1.01 4.495 1.01 4.495 0 5 C0 3.35 0 1.7 0 0 Z " fill="#0D0D0D" transform="translate(32,177)"/>
<path d="M0 0 C3.465 1.485 3.465 1.485 7 3 C6.01 4.485 6.01 4.485 5 6 C3.02 4.68 1.04 3.36 -1 2 C-0.67 1.34 -0.34 0.68 0 0 Z " fill="#F7E2D3" transform="translate(148,72)"/>
</svg>
