<?xml version="1.0" encoding="UTF-8"?>
<svg version="1.1" xmlns="http://www.w3.org/2000/svg" width="500" height="500">
<path d="M0 0 C165 0 330 0 500 0 C500 165 500 330 500 500 C335 500 170 500 0 500 C0 335 0 170 0 0 Z " fill="#003146" transform="translate(0,0)"/>
<path d="M0 0 C0.02338688 19.14136447 0.04100759 38.28272602 0.05181217 57.42410183 C0.05696283 66.31228043 0.06398208 75.20045015 0.07543945 84.08862305 C0.08542389 91.83785749 0.09186237 99.58708549 0.09408849 107.33632618 C0.09538922 111.43736987 0.09843459 115.53839514 0.10573006 119.63943291 C0.11254963 123.50450117 0.11460493 127.36954353 0.11310768 131.23461723 C0.11338135 132.64827617 0.11535109 134.06193604 0.11920547 135.47558975 C0.20288341 167.76700771 -13.24875319 195.32853358 -35.8125 218.1875 C-42.08567144 224.36988896 -48.89354628 229.81069923 -56 235 C-56.56493164 235.41459473 -57.12986328 235.82918945 -57.71191406 236.25634766 C-93.48309243 262.14581496 -93.48309243 262.14581496 -106.48510742 260.72924805 C-127.75272034 254.56223904 -148.2768614 240.23256719 -165 226 C-165.53206055 225.5477002 -166.06412109 225.09540039 -166.61230469 224.62939453 C-173.87941287 218.37666278 -180.17730808 211.63613818 -186 204 C-187.01513672 202.72576172 -187.01513672 202.72576172 -188.05078125 201.42578125 C-203.88608997 180.855254 -210.18437511 157.20135117 -210.11352539 131.57592773 C-210.11324285 130.13619489 -210.11340256 128.69646189 -210.1139679 127.25672913 C-210.11425326 123.37307561 -210.10839886 119.48945336 -210.10139394 115.60580707 C-210.09511682 111.53791131 -210.09455316 107.47001472 -210.09336853 103.40211487 C-210.09026802 95.71005963 -210.08207197 88.01801871 -210.07201904 80.32596976 C-210.06081804 71.56414012 -210.05533743 62.80230979 -210.05032361 54.04047477 C-210.03988822 36.02697508 -210.02231369 18.0134887 -210 0 C-208.08948748 -0.48578656 -206.17841276 -0.96936244 -204.2671051 -1.45201111 C-203.20293649 -1.72154067 -202.13876787 -1.99107023 -201.04235172 -2.26876736 C-197.3101097 -3.16581591 -193.64134382 -3.7798166 -189.83984375 -4.31640625 C-189.13132263 -4.41785446 -188.42280151 -4.51930267 -187.69281006 -4.62382507 C-185.44196552 -4.94378598 -183.18993061 -5.25391902 -180.9375 -5.5625 C-179.36498291 -5.78152297 -177.7924732 -6.00059889 -176.2199707 -6.21972656 C-154.73310756 -9.19223571 -154.73310756 -9.19223571 -144 -10 C-142.88093262 -10.08459473 -142.88093262 -10.08459473 -141.73925781 -10.17089844 C-35.25722465 -17.62861232 -35.25722465 -17.62861232 0 0 Z " fill="#F8F9F9" transform="translate(356,178)"/>
<path d="M0 0 C2.21333677 1.4637546 2.21333677 1.4637546 4.93774414 2.44067383 C7.19726562 4.36279297 7.19726562 4.36279297 7.64071655 6.24584961 C7.81324781 8.79778584 7.8107902 11.30160825 7.75585938 13.85888672 C7.75352798 14.80280777 7.75119659 15.74672882 7.74879456 16.71925354 C7.73904199 18.72251381 7.71722034 20.72574584 7.68432617 22.72875977 C7.63545467 25.75758906 7.62287542 28.78477915 7.6171875 31.81396484 C7.56020169 41.49984959 7.30065387 50.86659877 5.19726562 60.36279297 C4.98585938 61.54873047 4.77445313 62.73466797 4.55664062 63.95654297 C2.91506279 71.78560649 0.08273217 78.38404237 -3.80273438 85.36279297 C-8.20840903 84.01330704 -12.10572297 82.26002938 -16.17773438 80.11279297 C-26.87111573 74.62579753 -38.1274233 70.71392773 -49.64257812 67.31982422 C-52.15237931 66.55974846 -54.62033186 65.7447358 -57.09960938 64.89404297 C-71.65605687 60.02470732 -87.01396468 57.7005503 -102.11523438 55.17529297 C-102.8655191 55.04891449 -103.61580383 54.92253601 -104.38882446 54.79232788 C-113.30868043 53.29823037 -122.21404331 51.97846062 -131.21882629 51.10639954 C-135.06007868 50.70343856 -138.29626814 49.99705139 -141.80273438 48.36279297 C-141.80273438 47.37279297 -141.80273438 46.38279297 -141.80273438 45.36279297 C-143.45273438 46.35279297 -145.10273438 47.34279297 -146.80273438 48.36279297 C-146.68931903 50.77156554 -146.68931903 50.77156554 -145.80273438 53.36279297 C-141.47197331 56.59573636 -136.38259611 58.02366177 -131.30273438 59.67529297 C-130.38508301 59.97870605 -129.46743164 60.28211914 -128.52197266 60.59472656 C-121.0808839 63.02356483 -113.56848402 65.13807748 -106.0246582 67.2199707 C-99.61875342 69.02827171 -93.70248329 71.24020923 -87.80273438 74.36279297 C-87.92773438 76.61279297 -87.92773438 76.61279297 -88.80273438 79.36279297 C-105.51013484 92.92527099 -135.47809233 93.24741286 -155.82324219 95.08886719 C-157.67055552 95.25870376 -159.51671001 95.44253252 -161.36035156 95.6484375 C-165.66169327 96.11950171 -169.59032467 96.46194078 -173.80273438 95.36279297 C-177.02158391 92.51181195 -178.30255983 89.33384324 -179.80273438 85.36279297 C-180.24746094 84.36634766 -180.6921875 83.36990234 -181.15039062 82.34326172 C-182.45633065 79.37729297 -183.65053444 76.39143279 -184.80273438 73.36279297 C-185.10179687 72.57904297 -185.40085938 71.79529297 -185.70898438 70.98779297 C-191.67155747 54.2925883 -193.82837589 30.73762882 -189.80273438 13.36279297 C-186.62700691 7.3113735 -181.29591769 5.16879103 -175.03857422 3.15478516 C-171.60519119 1.93859226 -168.94093729 0.03051919 -165.92773438 -2.01220703 C-155.09159561 -8.54615671 -146.32480087 -12.91869071 -133.38867188 -10.11376953 C-121.76147174 -6.0782121 -110.68404014 2.15140293 -100.80273438 9.36279297 C-105.18715963 14.61454223 -109.8111553 19.4950177 -114.67773438 24.30029297 C-115.36609375 24.98414063 -116.05445313 25.66798828 -116.76367188 26.37255859 C-118.44106949 28.03830761 -120.12077228 29.70165517 -121.80273438 31.36279297 C-118.94097651 30.40887368 -116.99208993 29.31501482 -114.47070312 27.69482422 C-113.60098877 27.13843262 -112.73127441 26.58204102 -111.83520508 26.00878906 C-110.89636475 25.40373535 -109.95752441 24.79868164 -108.99023438 24.17529297 C-106.98767815 22.89266603 -104.98507261 21.61011609 -102.98242188 20.32763672 C-101.95600586 19.66876465 -100.92958984 19.00989258 -99.87207031 18.33105469 C-94.21495126 14.70333485 -88.5439702 11.09736567 -82.87060547 7.49511719 C-78.43155635 4.67605445 -73.99960524 1.84734527 -69.58398438 -1.00830078 C-41.85621386 -18.86590889 -27.7204263 -17.3099479 0 0 Z " fill="#013246" transform="translate(342.802734375,273.63720703125)"/>
<path d="M0 0 C3.86269706 0.01839146 7.72515401 0.02050772 11.58789062 0.02026367 C31.71240395 0.04597361 51.17729168 0.99734688 71.11523438 3.73486328 C74.12583025 4.14743921 77.13791504 4.5474495 80.15039062 4.94604492 C82.09319741 5.20768466 84.03590953 5.47002856 85.97851562 5.7331543 C86.86507843 5.85093735 87.75164124 5.9687204 88.66506958 6.09007263 C89.50730072 6.20681839 90.34953186 6.32356415 91.21728516 6.44384766 C91.94464874 6.54297958 92.67201233 6.64211151 93.42141724 6.74424744 C96.97453881 7.38756086 100.46762548 8.33004113 103.97070312 9.20581055 C103.97070312 36.59581055 103.97070312 63.98581055 103.97070312 92.20581055 C99.77989793 90.52948847 96.60260642 88.80714399 92.84570312 86.39331055 C87.09893086 82.77336116 81.25565018 79.77835127 74.97070312 77.20581055 C73.98070312 76.79331055 72.99070312 76.38081055 71.97070312 75.95581055 C67.36473066 74.80431743 62.69845315 74.52548048 57.97070312 74.20581055 C60.6109842 72.13045448 63.19852582 70.47902958 66.22070312 69.01831055 C66.92710937 68.67413086 67.63351562 68.32995117 68.36132812 67.9753418 C68.89242187 67.72139648 69.42351562 67.46745117 69.97070312 67.20581055 C59.92304358 67.86982979 49.96185015 68.97336966 39.97070312 70.20581055 C44.50651402 64.68928378 49.44868514 59.71273229 54.58007812 54.7565918 C56.6695987 52.527087 57.71837664 50.91570991 58.97070312 48.20581055 C58.16234009 48.59119995 58.16234009 48.59119995 57.33764648 48.984375 C54.86182916 50.16375276 52.38502517 51.34104436 49.90820312 52.51831055 C49.06064453 52.92243164 48.21308594 53.32655273 47.33984375 53.74291992 C42.58850674 55.99934638 37.82161748 58.17198078 32.97070312 60.20581055 C34.96676625 53.40315338 37.77698418 47.36070174 41.15820312 41.14331055 C41.62162109 40.27770508 42.08503906 39.41209961 42.5625 38.52026367 C43.69234638 36.41199363 44.82844483 34.30737356 45.97070312 32.20581055 C40.72391004 36.58040945 35.8767614 41.20526496 31.09570312 46.08081055 C29.7672528 47.43461298 28.43664695 48.78630489 27.10351562 50.13549805 C26.5248877 50.72572754 25.94625977 51.31595703 25.35009766 51.92407227 C23.97070312 53.20581055 23.97070312 53.20581055 22.97070312 53.20581055 C22.78113374 46.57088194 23.51508944 40.26596935 24.47070312 33.70581055 C24.61378906 32.69260742 24.756875 31.6794043 24.90429688 30.63549805 C25.25485895 28.15819273 25.61043159 25.68171918 25.97070312 23.20581055 C25.62289795 23.88683838 25.27509277 24.56786621 24.91674805 25.26953125 C23.33649651 28.35553638 21.74746591 31.43693715 20.15820312 34.51831055 C19.61099609 35.59016602 19.06378906 36.66202148 18.5 37.76635742 C17.96826172 38.79438477 17.43652344 39.82241211 16.88867188 40.8815918 C16.40164795 41.82945557 15.91462402 42.77731934 15.4128418 43.75390625 C14.11049226 45.96814299 12.88115676 47.51341128 10.97070312 49.20581055 C9.09905586 43.28672607 8.34812135 37.59571804 7.75976562 31.43432617 C7.64761719 30.36021484 7.64761719 30.36021484 7.53320312 29.2644043 C7.47261719 28.62817139 7.41203125 27.99193848 7.34960938 27.33642578 C6.85518044 24.55621877 5.86367631 21.88473009 4.97070312 19.20581055 C3.32070312 29.10581055 1.67070312 39.00581055 -0.02929688 49.20581055 C-0.68929687 49.20581055 -1.34929687 49.20581055 -2.02929688 49.20581055 C-2.54878906 48.15522461 -3.06828125 47.10463867 -3.60351562 46.0222168 C-7.25675009 38.65965213 -10.91553527 31.32578255 -15.02929688 24.20581055 C-14.39657388 33.92976398 -13.3059473 43.55036705 -12.02929688 53.20581055 C-17.14423736 48.88238881 -22.08772187 44.41781139 -26.96679688 39.83081055 C-27.65064453 39.19014648 -28.33449219 38.54948242 -29.0390625 37.8894043 C-30.70371485 36.32952028 -32.36709878 34.76830882 -34.02929688 33.20581055 C-30.55538474 40.84348971 -26.98212195 48.38687994 -23.13085938 55.8425293 C-22.02929688 58.20581055 -22.02929688 58.20581055 -22.02929688 60.20581055 C-26.01722634 58.95158369 -29.69879091 57.49065474 -33.42773438 55.60424805 C-34.40097656 55.1144043 -35.37421875 54.62456055 -36.37695312 54.11987305 C-37.87548828 53.35803711 -37.87548828 53.35803711 -39.40429688 52.58081055 C-40.42652344 52.06518555 -41.44875 51.54956055 -42.50195312 51.01831055 C-45.01292357 49.75109182 -47.52194249 48.48016498 -50.02929688 47.20581055 C-45.65469797 52.45260363 -41.02984246 57.29975228 -36.15429688 62.08081055 C-34.80049444 63.40926088 -33.44880253 64.73986672 -32.09960938 66.07299805 C-31.50937988 66.65162598 -30.91915039 67.23025391 -30.31103516 67.82641602 C-29.02929688 69.20581055 -29.02929688 69.20581055 -29.02929688 70.20581055 C-39.04467335 69.35056492 -49.03427278 68.26911098 -59.02929688 67.20581055 C-51.43929687 71.16581055 -43.84929687 75.12581055 -36.02929688 79.20581055 C-39.34445697 80.31086391 -41.55360209 80.1728787 -45.02929688 80.01831055 C-57.34513439 79.97748457 -66.76397197 86.01816667 -77.02929688 92.20581055 C-77.71266113 92.61653809 -78.39602539 93.02726562 -79.10009766 93.45043945 C-79.79989746 93.87115723 -80.49969727 94.291875 -81.22070312 94.7253418 C-81.90874023 95.13888916 -82.59677734 95.55243652 -83.30566406 95.97851562 C-84.64559767 96.78617105 -85.98355118 97.59712221 -87.31933594 98.41162109 C-91.92269063 101.20581055 -91.92269063 101.20581055 -93.02929688 101.20581055 C-93.02929688 70.84581055 -93.02929688 40.48581055 -93.02929688 9.20581055 C-85.61823287 7.35304455 -78.3302248 6.09916575 -70.79052734 5.02856445 C-68.58888664 4.71431602 -66.38922855 4.38829306 -64.18945312 4.0612793 C-42.80872619 0.94834638 -21.59754962 -0.10611354 0 0 Z " fill="#033247" transform="translate(246.029296875,173.794189453125)"/>
<path d="M0 0 C7.21875 -0.061875 14.4375 -0.12375 21.875 -0.1875 C25.26241455 -0.22846802 25.26241455 -0.22846802 28.71826172 -0.27026367 C30.53873157 -0.27903797 32.35920737 -0.28667967 34.1796875 -0.29296875 C35.10015869 -0.30831665 36.02062988 -0.32366455 36.96899414 -0.33947754 C46.98145279 -0.343456 54.90200841 1.75876795 62.1484375 8.8515625 C67.60916064 15.18784463 67.60103337 22.14001797 67.40625 30.3046875 C66.44353582 39.06168378 62.3054189 44.42042181 55.57421875 49.8203125 C55.05472656 50.20960937 54.53523438 50.59890625 54 51 C54.61199056 55.12278429 55.99038065 58.25120756 57.94140625 61.921875 C58.52470703 63.02917969 59.10800781 64.13648437 59.70898438 65.27734375 C60.62647461 66.99630859 60.62647461 66.99630859 61.5625 68.75 C62.77378413 71.03558533 63.98351029 73.32199727 65.19140625 75.609375 C65.72967041 76.61967773 66.26793457 77.62998047 66.82250977 78.67089844 C68 81 68 81 68 82 C60.74 82 53.48 82 46 82 C44.20335168 78.46078308 42.41254629 74.91881052 40.625 71.375 C40.11710937 70.37597656 39.60921875 69.37695312 39.0859375 68.34765625 C38.59609375 67.37441406 38.10625 66.40117188 37.6015625 65.3984375 C37.15119629 64.50817871 36.70083008 63.61791992 36.23681641 62.70068359 C34.94837034 59.88726266 33.97854129 56.93562388 33 54 C28.71 54 24.42 54 20 54 C20 63.24 20 72.48 20 82 C13.4 82 6.8 82 0 82 C0 54.94 0 27.88 0 0 Z " fill="#FAFBFB" transform="translate(215,59)"/>
<path d="M0 0 C6.6 0 13.2 0 20 0 C20.01981934 1.5991626 20.03963867 3.1983252 20.06005859 4.84594727 C20.1362726 10.79304442 20.22496607 16.73990196 20.31738281 22.68676758 C20.35560724 25.25800843 20.3904714 27.82930156 20.421875 30.40063477 C20.46766698 34.10191501 20.52563923 37.80283736 20.5859375 41.50390625 C20.59748871 42.64896133 20.60903992 43.79401642 20.62094116 44.97377014 C20.59443741 54.95577035 20.59443741 54.95577035 25.21875 63.41015625 C28.56391308 65.32234919 30.6657717 65.50468858 34.5 65.4375 C35.6034375 65.43621094 36.706875 65.43492188 37.84375 65.43359375 C41.44248697 64.9392128 43.21333204 64.33335725 46 62 C49.63529861 55.62431334 49.472225 49.49751164 49.51171875 42.28515625 C49.52966995 41.07427841 49.54762115 39.86340057 49.56611633 38.61582947 C49.62011128 34.7647546 49.65408149 30.91380295 49.6875 27.0625 C49.72068249 24.44464436 49.75517301 21.82680495 49.79101562 19.20898438 C49.87583209 12.80607861 49.94269564 6.40320871 50 0 C56.27 0 62.54 0 69 0 C69.09078347 7.6502528 69.16399215 15.30030154 69.20724869 22.95096397 C69.22802189 26.50446139 69.25614773 30.05756754 69.30175781 33.61083984 C69.35399721 37.70674143 69.37302984 41.80223942 69.390625 45.8984375 C69.41127014 47.1592514 69.43191528 48.42006531 69.45318604 49.71908569 C69.45584762 60.29491191 67.27703784 68.5165766 59.92578125 76.30859375 C50.49300919 84.5933611 37.78054676 83.50795061 26 83 C17.89600742 82.23444065 11.91325943 78.91325943 6.1875 73.1875 C-0.34357857 63.67078551 -0.14704456 53.4514912 -0.09765625 42.28515625 C-0.09553383 40.46883949 -0.09553383 40.46883949 -0.09336853 38.61582947 C-0.08779026 34.76469406 -0.0752417 30.91361771 -0.0625 27.0625 C-0.05748219 24.4446623 -0.05291978 21.82682369 -0.04882812 19.20898438 C-0.03782793 12.80596698 -0.02057822 6.40299349 0 0 Z " fill="#FBFCFC" transform="translate(292,59)"/>
<path d="M0 0 C11.09117957 3.7366006 19.45301875 15.02743849 25.21484375 24.7890625 C26.24839552 27.69946202 26.07186873 29.10686279 25 32 C21.71678549 35.43621868 17.79911001 38.15549158 14 41 C12.97519531 41.78632813 11.95039063 42.57265625 10.89453125 43.3828125 C-23.40910267 69.15483768 -23.40910267 69.15483768 -36.671875 68.9609375 C-41.68790507 67.51264713 -46.1728006 65.1807124 -50.8125 62.8125 C-51.75931641 62.34263672 -52.70613281 61.87277344 -53.68164062 61.38867188 C-59.75860548 58.32300413 -65.43325964 54.91561049 -71 51 C-68.16749543 48.76020283 -65.3331128 47.04664839 -62.10546875 45.43359375 C-60.6827063 44.71284668 -60.6827063 44.71284668 -59.23120117 43.97753906 C-58.22677979 43.46932617 -57.2223584 42.96111328 -56.1875 42.4375 C-34.7752933 31.42598612 -16.80143974 17.18329065 0 0 Z " fill="#033247" transform="translate(287,363)"/>
<path d="M0 0 C22.44 0 44.88 0 68 0 C68 5.61 68 11.22 68 17 C60.08 17 52.16 17 44 17 C44 38.45 44 59.9 44 82 C37.4 82 30.8 82 24 82 C24 60.55 24 39.1 24 17 C16.08 17 8.16 17 0 17 C0 11.39 0 5.78 0 0 Z " fill="#FAFBFB" transform="translate(139,59)"/>
<path d="M0 0 C3.01125 -0.061875 6.0225 -0.12375 9.125 -0.1875 C10.06230957 -0.21481201 10.99961914 -0.24212402 11.96533203 -0.27026367 C17.07521417 -0.32087273 20.57702787 0.14466356 25 3 C27.39078647 5.93414703 27.42051808 9.24848717 27.31640625 12.96875 C26.78254307 16.39601982 25.25665977 18.43838621 23 21 C18.40480081 23.57609652 13.79471971 23.2289942 8.6875 23.125 C5.820625 23.08375 2.95375 23.0425 0 23 C0 15.41 0 7.82 0 0 Z " fill="#053348" transform="translate(235,75)"/>
<path d="M0 0 C2.39073445 3.82517513 2.55966552 7.59665524 3 12 C2.71125 11.360625 2.4225 10.72125 2.125 10.0625 C1.17176549 7.84793921 1.17176549 7.84793921 -1 7 C-1.04254356 5.00045254 -1.04080783 2.99958364 -1 1 C-0.67 0.67 -0.34 0.34 0 0 Z " fill="#A8B6BD" transform="translate(251,192)"/>
<path d="M0 0 C1.98 0.99 1.98 0.99 4 2 C3.34 3.65 2.68 5.3 2 7 C0 4 0 4 0 0 Z " fill="#153D51" transform="translate(256,216)"/>
</svg>
